<?xml version="1.0" standalone="no"?><!DOCTYPE svg PUBLIC "-//W3C//DTD SVG 1.1//EN" "http://www.w3.org/Graphics/SVG/1.1/DTD/svg11.dtd"><svg t="1736867016935" class="icon" viewBox="0 0 1024 1024" version="1.1" xmlns="http://www.w3.org/2000/svg" p-id="1484" xmlns:xlink="http://www.w3.org/1999/xlink" width="200" height="200"><path d="M192 256h640c17.6 0 32-14.4 32-32s-14.4-32-32-32H192c-17.6 0-32 14.4-32 32s14.4 32 32 32zM256 128h512c17.6 0 32-14.4 32-32s-14.4-32-32-32H256c-17.6 0-32 14.4-32 32s14.4 32 32 32zM800 320H224c-70.4 0-128 57.6-128 128v384c0 70.4 57.6 128 128 128h576c70.4 0 128-57.6 128-128V448c0-70.4-57.6-128-128-128z m-96 352c0 7.698-2.755 14.784-7.328 20.321a31.974 31.974 0 0 1-2.28 2.542L534.863 854.392c-6.282 6.282-14.582 9.388-22.863 9.328-8.281 0.06-16.581-3.046-22.863-9.328L329.608 694.863a31.974 31.974 0 0 1-2.28-2.542C322.755 686.784 320 679.698 320 672c0-17.6 14.4-32 32-32h64V480c0-35.2 28.8-64 64-64h64c35.2 0 64 28.8 64 64v160h64c17.6 0 32 14.4 32 32z" p-id="1485"></path></svg>