<?xml version="1.0" standalone="no"?><!DOCTYPE svg PUBLIC "-//W3C//DTD SVG 1.1//EN" "http://www.w3.org/Graphics/SVG/1.1/DTD/svg11.dtd"><svg t="1737540174991" class="icon" viewBox="0 0 1024 1024" version="1.1" xmlns="http://www.w3.org/2000/svg" p-id="44077" xmlns:xlink="http://www.w3.org/1999/xlink" width="200" height="200"><path d="M877.713711 658.285976h-298.788358l94.354218-94.719933L621.713894 512.000366l-182.857012 182.857012 182.857012 182.857012 51.565677-51.565677L578.925353 731.42878H877.713711v292.57122h73.142805v-292.57122a73.142805 73.142805 0 0 0-73.142805-73.142804zM793.965199 266.606255l-255.999817-255.999817A36.571402 36.571402 0 0 0 511.999687 0.000731H146.285662a73.142805 73.142805 0 0 0-73.142805 73.142805v877.713659a73.142805 73.142805 0 0 0 73.142805 73.142805h292.57122v-73.142805H146.285662V73.143536h292.57122v219.428415a73.142805 73.142805 0 0 0 73.142805 73.142805h219.428414v73.142805h73.142805V292.571951a36.571402 36.571402 0 0 0-10.605707-25.965696zM511.999687 88.137811L716.433826 292.571951H511.999687V88.137811z" fill="#000000" p-id="44078"></path></svg>