<?xml version="1.0" standalone="no"?><!DOCTYPE svg PUBLIC "-//W3C//DTD SVG 1.1//EN" "http://www.w3.org/Graphics/SVG/1.1/DTD/svg11.dtd"><svg t="1736864955493" class="icon" viewBox="0 0 1024 1024" version="1.1" xmlns="http://www.w3.org/2000/svg" p-id="5707" xmlns:xlink="http://www.w3.org/1999/xlink" width="200" height="200"><path d="M512 56.888889C261.688889 56.888889 56.888889 261.688889 56.888889 512s204.8 455.111111 455.111111 455.111111 455.111111-204.8 455.111111-455.111111-204.8-455.111111-455.111111-455.111111zM426.666667 768c-28.444444 0-51.2-11.377778-51.2-45.511111 0-39.822222 28.444444-108.088889 34.133333-119.466667l56.888889-147.911111c5.688889-17.066667 0-22.755556-5.688889-22.755555-28.444444 0-68.266667 73.955556-85.333333 73.955555-5.688889 0-11.377778-5.688889-11.377778-11.377778 0-17.066667 34.133333-51.2 45.511111-62.577777 34.133333-34.133333 73.955556-56.888889 125.155556-56.888889 34.133333 0 73.955556 22.755556 45.511111 102.4l-56.888889 159.288889c-5.688889 11.377778-11.377778 34.133333-11.377778 45.511111 0 5.688889 5.688889 11.377778 11.377778 11.377777 22.755556 0 68.266667-68.266667 79.644444-68.266666 5.688889 0 11.377778 5.688889 11.377778 11.377778-5.688889 28.444444-102.4 130.844444-187.733333 130.844444zM568.888889 347.022222c-34.133333 0-56.888889-22.755556-56.888889-56.888889S546.133333 227.555556 580.266667 227.555556s56.888889 22.755556 56.888889 56.888888c0 39.822222-34.133333 62.577778-68.266667 62.577778z" fill="" p-id="5708"></path></svg>