<?xml version="1.0" standalone="no"?><!DOCTYPE svg PUBLIC "-//W3C//DTD SVG 1.1//EN" "http://www.w3.org/Graphics/SVG/1.1/DTD/svg11.dtd"><svg t="1736861918367" class="icon" viewBox="0 0 1024 1024" version="1.1" xmlns="http://www.w3.org/2000/svg" p-id="5218" xmlns:xlink="http://www.w3.org/1999/xlink" width="200" height="200"><path d="M42.6496 448q0-167.936 118.784-286.6176Q280.064 42.6496 448 42.6496q167.936 0 286.6176 118.784 118.7328 118.6816 118.7328 286.5664 0 167.936-118.7328 286.6176-118.7328 118.7328-286.6176 118.7328-167.936 0-286.6176-118.7328Q42.6496 615.8848 42.6496 448z m85.3504 0q0 132.5568 93.696 226.304Q315.4944 768 448 768t226.304-93.696Q768 580.5056 768 448t-93.696-226.304Q580.5056 128 448 128T221.696 221.696Q128 315.4944 128 448z" fill="#1D2129" p-id="5219"></path><path d="M327.3216 348.7232a42.752 42.752 0 0 0 31.8464-14.2336q37.0176-35.84 88.832-35.84t88.832 35.84a42.752 42.752 0 1 0 59.904-60.7744q-61.8496-60.416-148.736-60.416-86.8864 0-148.736 60.416a42.752 42.752 0 0 0 28.0576 75.008zM665.9584 708.7104c0 12.288 5.2736 23.9616 14.4896 32.1024l177.2032 177.152a42.752 42.752 0 1 0 60.3648-60.3136l-177.2032-177.152a42.752 42.752 0 0 0-74.8544 28.2112z" fill="#1D2129" p-id="5220"></path></svg>