<?xml version="1.0" standalone="no"?><!DOCTYPE svg PUBLIC "-//W3C//DTD SVG 1.1//EN" "http://www.w3.org/Graphics/SVG/1.1/DTD/svg11.dtd"><svg t="1736865112520" class="icon" viewBox="0 0 1024 1024" version="1.1" xmlns="http://www.w3.org/2000/svg" p-id="7526" xmlns:xlink="http://www.w3.org/1999/xlink" width="200" height="200"><path d="M870.4 204.8h-51.2V153.6a153.6 153.6 0 0 0-153.6-153.6H153.6a153.6 153.6 0 0 0-153.6 153.6v512a153.6 153.6 0 0 0 153.6 153.6h51.2v51.2a153.6 153.6 0 0 0 153.6 153.6h512a153.6 153.6 0 0 0 153.6-153.6V358.4a153.6 153.6 0 0 0-153.6-153.6zM204.8 358.4v358.4H153.6a51.2 51.2 0 0 1-51.2-51.2V153.6a51.2 51.2 0 0 1 51.2-51.2h512a51.2 51.2 0 0 1 51.2 51.2v51.2H358.4a153.6 153.6 0 0 0-153.6 153.6z m716.8 512a51.2 51.2 0 0 1-51.2 51.2H358.4a51.2 51.2 0 0 1-51.2-51.2V358.4a51.2 51.2 0 0 1 51.2-51.2h512a51.2 51.2 0 0 1 51.2 51.2z" p-id="7527"></path><path d="M813.312 499.968a51.2 51.2 0 0 0-72.192 0l-187.904 187.648-90.624-90.624a51.2 51.2 0 0 0-72.448 72.448L515.328 793.6l1.536 1.792a51.2 51.2 0 0 0 72.448 0l224-224.256a51.2 51.2 0 0 0 0-72.192z" p-id="7528"></path></svg>