<?xml version="1.0" standalone="no"?><!DOCTYPE svg PUBLIC "-//W3C//DTD SVG 1.1//EN" "http://www.w3.org/Graphics/SVG/1.1/DTD/svg11.dtd"><svg t="1736861686367" class="icon" viewBox="0 0 1024 1024" version="1.1" xmlns="http://www.w3.org/2000/svg" p-id="2380" xmlns:xlink="http://www.w3.org/1999/xlink" width="200" height="200"><path d="M804.571429 749.714286v54.857143a18.285714 18.285714 0 0 1-18.285715 18.285714H237.714286a18.285714 18.285714 0 0 1-18.285715-18.285714v-54.857143a73.142857 73.142857 0 0 0-73.142857-73.142857H73.142857a73.142857 73.142857 0 0 0-73.142857 73.142857v164.571428a109.714286 109.714286 0 0 0 109.714286 109.714286h804.571428a109.714286 109.714286 0 0 0 109.714286-109.714286v-164.571428a73.142857 73.142857 0 0 0-73.142857-73.142857h-73.142857a73.142857 73.142857 0 0 0-73.142857 73.142857z" fill="#333333" p-id="2381"></path><path d="M640 364.068571v280.32a73.142857 73.142857 0 0 1-73.142857 73.142858h-109.714286a73.142857 73.142857 0 0 1-73.142857-73.142858V364.068571a18.285714 18.285714 0 0 0-18.285714-18.285714h-85.577143a36.571429 36.571429 0 0 1-27.794286-60.16L484.205714 12.8a36.571429 36.571429 0 0 1 54.857143 0L771.657143 285.622857a36.571429 36.571429 0 0 1-27.794286 60.16H658.285714a18.285714 18.285714 0 0 0-18.285714 18.285714z" fill="#333333" p-id="2382"></path></svg>