<?xml version="1.0" standalone="no"?><!DOCTYPE svg PUBLIC "-//W3C//DTD SVG 1.1//EN" "http://www.w3.org/Graphics/SVG/1.1/DTD/svg11.dtd"><svg t="1737293844965" class="icon" viewBox="0 0 1024 1024" version="1.1" xmlns="http://www.w3.org/2000/svg" p-id="21951" xmlns:xlink="http://www.w3.org/1999/xlink" width="200" height="200"><path d="M339.626667 512m-240.64 0a240.64 240.64 0 1 0 481.28 0 240.64 240.64 0 1 0-481.28 0Z" fill="#333333" opacity=".3" p-id="21952"></path><path d="M855.04 488.106667c-3.413333 0-8.533333-1.706667-11.946667-3.413334-11.946667-6.826667-17.066667-22.186667-11.946666-34.133333 13.653333-25.6 15.36-56.32 6.826666-83.626667-8.533333-29.013333-29.013333-52.906667-54.613333-68.266666-11.946667-6.826667-17.066667-22.186667-10.24-34.133334s22.186667-17.066667 34.133333-10.24c39.253333 20.48 66.56 56.32 80.213334 98.986667 11.946667 40.96 8.533333 83.626667-10.24 121.173333-3.413333 8.533333-13.653333 13.653333-22.186667 13.653334z" fill="#333333" p-id="21953"></path><path d="M940.373333 527.36c-3.413333 0-8.533333-1.706667-11.946666-3.413333-11.946667-6.826667-17.066667-22.186667-11.946667-34.133334 23.893333-46.08 27.306667-100.693333 13.653333-150.186666-15.36-52.906667-51.2-95.573333-98.986666-121.173334-11.946667-6.826667-17.066667-22.186667-10.24-34.133333s22.186667-17.066667 34.133333-10.24c59.733333 32.426667 104.106667 87.04 122.88 151.893333 18.773333 63.146667 13.653333 129.706667-15.36 187.733334-5.12 8.533333-13.653333 13.653333-22.186667 13.653333zM824.32 718.506667c-5.12 0-11.946667-1.706667-17.066667-3.413334-69.973333-27.306667-139.946667-44.373333-206.506666-51.2-76.8-8.533333-136.533333 3.413333-172.373334 10.24-13.653333 1.706667-23.893333 5.12-32.426666 5.12-13.653333 1.706667-25.6-10.24-27.306667-23.893333-1.706667-13.653333 10.24-25.6 23.893333-27.306667 5.12 0 15.36-1.706667 25.6-3.413333 37.546667-6.826667 100.693333-18.773333 186.026667-10.24 69.973333 6.826667 141.653333 25.6 215.04 52.906667l-158.72-529.066667c-51.2 75.093333-112.64 138.24-184.32 187.733333-44.373333 34.133333-98.986667 51.2-133.12 61.44-10.24 3.413333-18.773333 6.826667-22.186667 8.533334-11.946667 6.826667-27.306667 0-34.133333-11.946667-6.826667-11.946667 0-27.306667 11.946667-34.133333 6.826667-3.413333 15.36-6.826667 29.013333-10.24 32.426667-10.24 80.213333-25.6 117.76-54.613334 68.266667-47.786667 126.293333-107.52 175.786667-180.906666 10.24-13.653333 29.013333-22.186667 47.786666-18.773334 18.773333 3.413333 34.133333 15.36 39.253334 34.133334L870.4 657.066667c5.12 17.066667 0 35.84-13.653333 49.493333-6.826667 5.12-13.653333 8.533333-20.48 11.946667h-11.946667z m-3.413333-47.786667z" fill="#333333" p-id="21954"></path><path d="M384 940.373333c-13.653333 0-27.306667-6.826667-37.546667-17.066666l-158.72-187.733334c-68.266667-10.24-124.586667-58.026667-145.066666-124.586666-13.653333-44.373333-8.533333-92.16 13.653333-134.826667s59.733333-71.68 105.813333-85.333333l141.653334-40.96c13.653333-3.413333 27.306667 3.413333 32.426666 17.066666l83.626667 276.48 116.053333 191.146667c8.533333 13.653333 8.533333 29.013333 3.413334 42.666667s-17.066667 25.6-30.72 29.013333L397.653333 938.666667c-5.12 0-10.24 1.706667-13.653333 1.706666z m-92.16-534.186666l-116.053333 34.133333c-32.426667 10.24-59.733333 30.72-75.093334 61.44-15.36 29.013333-20.48 63.146667-10.24 95.573333 15.36 49.493333 59.733333 85.333333 110.933334 88.746667 6.826667 0 13.653333 3.413333 17.066666 8.533333L384 887.466667l104.106667-30.72L372.053333 665.6c-1.706667-1.706667-1.706667-3.413333-3.413333-5.12l-76.8-254.293333z m197.973333 453.973333z m1.706667-3.413333z" fill="#333333" p-id="21955"></path><path d="M199.68 737.28c-10.24 0-20.48-6.826667-23.893333-18.773333-3.413333-13.653333 3.413333-27.306667 17.066666-32.426667l196.266667-61.44c13.653333-3.413333 27.306667 3.413333 32.426667 17.066667 3.413333 13.653333-3.413333 27.306667-17.066667 32.426666l-196.266667 61.44c-3.413333 1.706667-5.12 1.706667-8.533333 1.706667z" fill="#333333" p-id="21956"></path></svg>