<?xml version="1.0" standalone="no"?><!DOCTYPE svg PUBLIC "-//W3C//DTD SVG 1.1//EN" "http://www.w3.org/Graphics/SVG/1.1/DTD/svg11.dtd"><svg t="1736861982838" class="icon" viewBox="0 0 1024 1024" version="1.1" xmlns="http://www.w3.org/2000/svg" p-id="6205" xmlns:xlink="http://www.w3.org/1999/xlink" width="200" height="200"><path d="M853.333333 256H298.666667c-23.466667 0-42.666667 19.2-42.666667 42.666667v554.666666c0 23.466667 19.2 42.666667 42.666667 42.666667h554.666666c23.466667 0 42.666667-19.2 42.666667-42.666667V298.666667c0-23.466667-19.2-42.666667-42.666667-42.666667z m-106.666666 362.666667h-128v128h-85.333334v-128h-128v-85.333334h128v-128h85.333334v128h128v85.333334z" fill="#080103" p-id="6206"></path><path d="M170.666667 170.666667h512v42.666666h42.666666V170.666667c0-23.466667-19.2-42.666667-42.666666-42.666667H170.666667c-23.466667 0-42.666667 19.2-42.666667 42.666667v512c0 23.466667 19.2 42.666667 42.666667 42.666666h42.666666v-42.666666H170.666667V170.666667z" fill="#080103" p-id="6207"></path></svg>