<?xml version="1.0" standalone="no"?><!DOCTYPE svg PUBLIC "-//W3C//DTD SVG 1.1//EN" "http://www.w3.org/Graphics/SVG/1.1/DTD/svg11.dtd"><svg t="1736862074819" class="icon" viewBox="0 0 1024 1024" version="1.1" xmlns="http://www.w3.org/2000/svg" p-id="8076" xmlns:xlink="http://www.w3.org/1999/xlink" width="200" height="200"><path d="M426.666667 85.333333L384 128H170.666667v85.333333h682.666666V128h-213.333333l-42.666667-42.666667h-170.666666zM213.333333 298.666667v554.666666c0 46.933333 38.4 85.333333 85.333334 85.333334h308.053333l85.76-85.333334H597.333333V384h85.333334v297.770667l19.84-19.754667 30.165333-30.165333a42.624 42.624 0 0 1 60.330667 0l17.664 17.664V298.666667H213.333333z m128 85.333333h85.333334v469.333333H341.333333V384z m421.504 338.346667l-60.330666 60.330666 90.453333 90.453334-90.453333 90.538666L762.837333 1024 853.333333 933.504 943.829333 1024l60.330667-60.330667-90.453333-90.496 90.453333-90.496-60.330667-60.330666L853.333333 812.8l-90.496-90.453333z" fill="#2C2A2A" p-id="8077"></path></svg>