<?xml version="1.0" standalone="no"?><!DOCTYPE svg PUBLIC "-//W3C//DTD SVG 1.1//EN" "http://www.w3.org/Graphics/SVG/1.1/DTD/svg11.dtd"><svg t="1737280844222" class="icon" viewBox="0 0 1024 1024" version="1.1" xmlns="http://www.w3.org/2000/svg" p-id="2671" xmlns:xlink="http://www.w3.org/1999/xlink" width="200" height="200"><path d="M128 42.666667h256c46.933333 0 85.333333 38.4 85.333333 85.333333v256c0 46.933333-38.4 85.333333-85.333333 85.333333H128c-46.933333 0-85.333333-38.4-85.333333-85.333333V128c0-46.933333 38.4-85.333333 85.333333-85.333333z" fill="#3399FF" p-id="2672"></path><path d="M384 490.666667H128c-59.733333 0-106.666667-46.933333-106.666667-106.666667V128c0-59.733333 46.933333-106.666667 106.666667-106.666667h256c59.733333 0 106.666667 46.933333 106.666667 106.666667v256c0 59.733333-46.933333 106.666667-106.666667 106.666667zM128 64C91.733333 64 64 91.733333 64 128v256c0 36.266667 27.733333 64 64 64h256c36.266667 0 64-27.733333 64-64V128c0-36.266667-27.733333-64-64-64H128z" p-id="2673"></path><path d="M640 42.666667h256c46.933333 0 85.333333 38.4 85.333333 85.333333v256c0 46.933333-38.4 85.333333-85.333333 85.333333H640c-46.933333 0-85.333333-38.4-85.333333-85.333333V128c0-46.933333 38.4-85.333333 85.333333-85.333333z" fill="#FFFFFF" p-id="2674"></path><path d="M896 490.666667H640c-59.733333 0-106.666667-46.933333-106.666667-106.666667V128c0-59.733333 46.933333-106.666667 106.666667-106.666667h256c59.733333 0 106.666667 46.933333 106.666667 106.666667v256c0 59.733333-46.933333 106.666667-106.666667 106.666667zM640 64c-36.266667 0-64 27.733333-64 64v256c0 36.266667 27.733333 64 64 64h256c36.266667 0 64-27.733333 64-64V128c0-36.266667-27.733333-64-64-64H640z" p-id="2675"></path><path d="M128 554.666667h256c46.933333 0 85.333333 38.4 85.333333 85.333333v256c0 46.933333-38.4 85.333333-85.333333 85.333333H128c-46.933333 0-85.333333-38.4-85.333333-85.333333V640c0-46.933333 38.4-85.333333 85.333333-85.333333z" fill="#FFFFFF" p-id="2676"></path><path d="M384 1002.666667H128c-59.733333 0-106.666667-46.933333-106.666667-106.666667V640c0-59.733333 46.933333-106.666667 106.666667-106.666667h256c59.733333 0 106.666667 46.933333 106.666667 106.666667v256c0 59.733333-46.933333 106.666667-106.666667 106.666667zM128 576c-36.266667 0-64 27.733333-64 64v256c0 36.266667 27.733333 64 64 64h256c36.266667 0 64-27.733333 64-64V640c0-36.266667-27.733333-64-64-64H128z" p-id="2677"></path><path d="M640 554.666667h256c46.933333 0 85.333333 38.4 85.333333 85.333333v256c0 46.933333-38.4 85.333333-85.333333 85.333333H640c-46.933333 0-85.333333-38.4-85.333333-85.333333V640c0-46.933333 38.4-85.333333 85.333333-85.333333z" fill="#FFBF80" p-id="2678"></path><path d="M896 1002.666667H640c-59.733333 0-106.666667-46.933333-106.666667-106.666667V640c0-59.733333 46.933333-106.666667 106.666667-106.666667h256c59.733333 0 106.666667 46.933333 106.666667 106.666667v256c0 59.733333-46.933333 106.666667-106.666667 106.666667zM640 576c-36.266667 0-64 27.733333-64 64v256c0 36.266667 27.733333 64 64 64h256c36.266667 0 64-27.733333 64-64V640c0-36.266667-27.733333-64-64-64H640z" p-id="2679"></path></svg>