<?xml version="1.0" standalone="no"?><!DOCTYPE svg PUBLIC "-//W3C//DTD SVG 1.1//EN" "http://www.w3.org/Graphics/SVG/1.1/DTD/svg11.dtd"><svg t="1736865359838" class="icon" viewBox="0 0 1024 1024" version="1.1" xmlns="http://www.w3.org/2000/svg" p-id="10391" xmlns:xlink="http://www.w3.org/1999/xlink" width="200" height="200"><path d="M716.8 212.48c-10.24 0-17.92 2.56-25.6 5.12v-5.12c0-43.52-33.28-76.8-76.8-76.8-10.24 0-17.92 2.56-28.16 5.12C581.12 104.96 550.4 76.8 512 76.8c-43.52 0-76.8 33.28-76.8 76.8v5.12c-7.68-2.56-15.36-5.12-25.6-5.12-43.52 0-76.8 33.28-76.8 76.8v104.96c-7.68-2.56-15.36-5.12-25.6-5.12-43.52 0-76.8 33.28-76.8 76.8v256c0 156.16 125.44 281.6 281.6 281.6s281.6-125.44 281.6-281.6V289.28c0-43.52-33.28-76.8-76.8-76.8zM742.4 665.6c0 128-102.4 230.4-230.4 230.4s-230.4-102.4-230.4-230.4V409.6c0-15.36 10.24-25.6 25.6-25.6s25.6 10.24 25.6 25.6v209.92h43.52c56.32 5.12 110.08 33.28 143.36 79.36l40.96-30.72c-40.96-56.32-107.52-94.72-176.64-99.84V230.4c0-15.36 10.24-25.6 25.6-25.6s25.6 10.24 25.6 25.6v256h51.2V153.6c0-15.36 10.24-25.6 25.6-25.6s25.6 10.24 25.6 25.6v335.36h51.2V212.48c0-15.36 10.24-25.6 25.6-25.6s25.6 10.24 25.6 25.6v276.48h51.2v-199.68c0-15.36 10.24-25.6 25.6-25.6s25.6 10.24 25.6 25.6V665.6z" fill="#525C6A" p-id="10392"></path></svg>