<?xml version="1.0" standalone="no"?><!DOCTYPE svg PUBLIC "-//W3C//DTD SVG 1.1//EN" "http://www.w3.org/Graphics/SVG/1.1/DTD/svg11.dtd"><svg t="1737440394151" class="icon" viewBox="0 0 1024 1024" version="1.1" xmlns="http://www.w3.org/2000/svg" p-id="4174" xmlns:xlink="http://www.w3.org/1999/xlink" width="200" height="200"><path d="M392.991028 760.500074l0-2.588806a90.557478 90.557478 0 0 1 14.97447-49.999505 94.872156 94.872156 0 0 1-66.547563-90.354434 99.288356 99.288356 0 0 1 14.974471-52.588311 94.872156 94.872156 0 0 1-66.547564-90.354434 96.902593 96.902593 0 0 1 11.725772-46.598523l-99.339116 0a95.582809 95.582809 0 0 1-98.070094-95.481287 98.374659 98.374659 0 0 1 98.070094-98.679225L582.735339 233.855549 523.142022 173.906905a104.821296 104.821296 0 0 1 0-139.694046 103.298468 103.298468 0 0 1 145.785356-7.360333l273.753631 275.530263a91.978784 91.978784 0 0 1 14.314579 18.476974C998.162693 371.671442 1022.426412 429.234323 1022.426412 551.060526c0 278.11907-150.150796 304.007138-335.326625 304.007139l-195.784861 0a94.770634 94.770634 0 0 1-98.323898-94.567591z m294.413324 42.639172c156.597432 0 283.753532-0.812175 283.753532-252.07872 0-106.597928-23.806871-170.404402-71.674416-218.779556l-259.489813-260.911119a48.425916 48.425916 0 0 0-71.522134 1.624349 53.349725 53.349725 0 0 0-1.472066 71.87746l84.872255 85.176821 55.83701 56.090814-494.665147 0a46.649284 46.649284 0 0 0-46.44624 46.801567 43.857433 43.857433 0 0 0 46.44624 43.400584l314.717692 0 0 0.50761a26.598721 26.598721 0 0 1 5.076092-0.50761 26.040351 26.040351 0 0 1 0 52.080702 26.598721 26.598721 0 0 1-5.076092-0.507609l0 0.507609-129.085015 0a45.177217 45.177217 0 1 0 0 90.354435L568.623804 518.776583l0 0.507609a26.598721 26.598721 0 0 1 5.076092-0.507609 26.040351 26.040351 0 0 1 0 52.080701 26.598721 26.598721 0 0 1-5.076092-0.507609l0 0.507609-118.628265 0a44.517325 44.517325 0 0 0-46.44624 44.21276s2.893372 46.598523 46.44624 46.598523L599.486442 661.668567l0 0.507609a26.598721 26.598721 0 0 1 5.076092-0.507609 25.786546 25.786546 0 0 1 25.735786 26.040351 25.380459 25.380459 0 0 1-25.735786 25.380459 26.598721 26.598721 0 0 1-5.076092-0.507609l0 0.507609-102.080206 0a45.278739 45.278739 0 0 0-46.44624 45.177217 43.349824 43.349824 0 0 0 46.44624 45.3295zM348.676746 195.632578l-86.648887 0a150.150796 150.150796 0 0 0-60.456253-13.045556 148.678729 148.678729 0 1 0 32.690031 293.651911 71.065285 71.065285 0 0 0 20.913498 47.918307 196.901601 196.901601 0 0 1-53.705051 7.563377 200.302583 200.302583 0 1 1 147.206662-336.1388z m0 0" p-id="4175"></path></svg>