<?xml version="1.0" standalone="no"?><!DOCTYPE svg PUBLIC "-//W3C//DTD SVG 1.1//EN" "http://www.w3.org/Graphics/SVG/1.1/DTD/svg11.dtd"><svg t="1736865240501" class="icon" viewBox="0 0 1024 1024" version="1.1" xmlns="http://www.w3.org/2000/svg" p-id="9380" xmlns:xlink="http://www.w3.org/1999/xlink" width="200" height="200"><path d="M382.933333 853.333333h-170.666666V170.666667h298.666666v213.333333h213.333334v132.266667l85.333333-85.333334V341.333333l-256-256h-341.333333a85.333333 85.333333 0 0 0-85.333334 85.333334v682.666666a85.333333 85.333333 0 0 0 85.333334 85.333334h170.666666v-85.333334m435.2-298.666666a32.426667 32.426667 0 0 1 17.066667 8.533333l55.466667 55.466667c8.533333 9.813333 8.533333 24.32 0 34.133333l-42.666667 42.666667-89.6-89.6 42.666667-42.666667a22.186667 22.186667 0 0 1 17.066666-8.533333m0 166.4l-260.266666 260.266666h-89.6v-89.6l260.266666-260.266666 89.6 89.6z" fill="#000000" p-id="9381"></path></svg>