<?xml version="1.0" standalone="no"?><!DOCTYPE svg PUBLIC "-//W3C//DTD SVG 1.1//EN" "http://www.w3.org/Graphics/SVG/1.1/DTD/svg11.dtd"><svg t="1737347045840" class="icon" viewBox="0 0 1024 1024" version="1.1" xmlns="http://www.w3.org/2000/svg" p-id="5505" xmlns:xlink="http://www.w3.org/1999/xlink" width="200" height="200"><path d="M529.000606 761.428985h-0.745502c-3.684751 14.783621-7.39181 33.647982-11.455819 48.059782l-14.789198 52.861856h55.068616l-15.529123-52.861856c-4.422816-14.78548-8.843773-33.274302-12.548974-48.059782zM333.833385 787.300322c0-18.842052-14.417377-28.823599-39.928047-28.823599-12.195744 0-19.215733 0.736206-24.023384 1.461258v58.03947h18.496258c29.572819 0.02045 45.455173-12.175293 45.455173-30.677129zM289.108841 858.271742h-19.215732v70.235213c5.553153 0.743643 12.199462 0.743643 21.807328 0.743643 25.51067 0 48.054205-9.607866 48.054204-35.862179 0-25.136989-22.543535-35.116677-50.6458-35.116677z" p-id="5506"></path><path d="M883.253496 245.396582c-0.057632-4.696105-1.548636-9.334578-4.774188-12.998878L681.027244 6.867542c-0.039041-0.06321-0.098533-0.08366-0.165461-0.141292-1.167519-1.314389-2.530245-2.398248-3.971053-3.353829-0.431313-0.278866-0.864485-0.533564-1.314389-0.784544A21.498716 21.498716 0 0 0 671.605288 0.929554c-0.371821-0.107828-0.695306-0.260275-1.068986-0.356949A20.230805 20.230805 0 0 0 665.929434 0H180.706156C158.569766 0 140.549439 18.020327 140.549439 40.158576v943.682848c0 22.147545 18.018468 40.158576 40.156717 40.158576h662.585829c22.15684 0 40.156717-18.011031 40.156717-40.158576V247.646102c0-0.764093-0.117124-1.504018-0.195206-2.24952zM373.034521 948.46819c-18.118859 14.421095-48.426026 22.549112-97.96008 22.549112-27.730444 0-48.426026-1.85353-61.001028-3.684751V722.625699c14.809648-2.961558 44.726403-5.177614 72.828668-5.177614 34.373034 0 55.446015 3.324084 73.563015 14.039978 17.36778 9.236045 29.937204 26.235722 29.937205 48.784834 0 22.175431-12.935668 42.880309-41.039793 53.235536v0.743643c28.470369 7.765491 49.534054 29.19542 49.534054 61.352399 0 22.560267-10.347791 40.294291-25.862041 52.863715z m211.406523 19.959376l-19.236183-63.949572h-71.328368l-17.748897 63.949572h-58.387123l76.13602-249.135247h73.9274l77.244048 249.135247h-60.606897z m235.833334-201.820967h-68.021017v201.832121h-56.548465V766.606599h-66.899975v-47.312421h191.469457v47.312421zM180.706156 681.842462V40.166012h465.156074v205.461099c0 11.083998 8.979488 20.078358 20.078358 20.078358H843.291985l0.02045 416.136993H180.706156z" p-id="5507"></path><path d="M662.155446 195.52417H341.853574c-20.078358 0-36.410616 16.322962-36.410616 36.392025v299.572826c0 20.078358 16.334116 36.412475 36.410616 36.412475h320.301872c20.080218 0 36.412475-16.334116 36.412475-36.412475V231.916195c0-20.069063-16.332257-36.392025-36.412475-36.392025z m12.138111 335.964851a12.134393 12.134393 0 0 1-12.138111 12.136253H341.853574a12.143689 12.143689 0 0 1-12.136253-12.136253v-236.478444h344.566941v236.478444h0.009295z" p-id="5508"></path><path d="M365.367562 456.420129c9.646908 2.119382 18.09655 8.152185 23.270446 16.5349 5.121841 8.41246 6.646308 18.736083 4.117922 28.269585-0.210079 0.888653 0.117124 1.838657 0.862626 2.372221l22.465452 16.382453c1.254897 0.890512 1.979949 0.422017 2.528386 0.046478a36.267465 36.267465 0 0 1 13.965614-5.304033c4.770469-0.743643 9.529784-0.568887 14.196143 0.596773a36.58909 36.58909 0 0 1 22.920934 17.029423c0.431313 0.765952 1.372021 1.215856 2.275547 1.059691l27.451578-4.313129c0.922117-0.158024 1.647169-0.844035 1.847952-1.72711 2.136114-9.645048 8.137313-18.111423 16.562787-23.255573 8.185649-4.999139 18.165337-6.534762 27.421832-4.346593a11.669616 11.669616 0 0 1 0.351371-3.554613c0.451763-1.676915 0.206361-3.480249-0.68601-4.887593a6.302374 6.302374 0 0 0-3.959899-2.799816c-4.941507-1.135915-8.589076-5.01959-9.353168-9.940646l-2.058032-13.010033c-0.784543-4.911761 1.491004-9.739863 5.783683-12.297994 1.509595-0.892371 2.606468-2.338757 2.982008-3.956181a6.187109 6.187109 0 0 0-0.804994-4.76861 12.247799 12.247799 0 0 1 0.392272-13.68117l7.765491-10.650826c1.950204-2.673396 4.744442-4.376339 7.852869-4.867142l2.16586-0.343935 2.608328 0.574464c2.058032 0.539141 3.66616 0.210079 5.019589-0.633956 1.450104-0.886794 2.509795-2.357348 2.842575-3.974771 1.046677-4.647768 4.608727-8.064807 9.156103-9.098471l-1.360866-8.574203a2.390812 2.390812 0 0 0-1.745702-1.866543c-9.645048-2.117523-18.126296-8.137313-23.244418-16.5349a36.58909 36.58909 0 0 1-4.156964-28.258431 2.256956 2.256956 0 0 0-0.842175-2.366643l-22.476607-16.352708c-1.254897-0.91654-1.974372-0.440608-2.548836-0.092955-8.209818 5.294737-18.552031 7.05903-28.141307 4.731428-9.565107-2.26997-17.897626-8.505416-22.896765-17.023845a2.240224 2.240224 0 0 0-2.279266-1.059692l-27.446 4.328002a2.271829 2.271829 0 0 0-1.847953 1.715956c-2.117523 9.637612-8.141031 18.131873-16.544195 23.249996-8.373419 5.160882-18.745379 6.676054-28.269585 4.136513-0.593055-0.128278-1.455681-0.362526-2.372221 0.862626l-16.373158 22.480325a2.312729 2.312729 0 0 0-0.057632 2.548836 36.602104 36.602104 0 0 1 4.750019 28.152461c-2.309011 9.565107-8.514711 17.897626-17.059168 22.88747a2.24952 2.24952 0 0 0-1.072705 2.299716l4.337297 27.46645c0.115265 0.905385 0.797557 1.615564 1.702942 1.816348z m95.020832-85.885178c29.455696-4.638473 57.171267 15.583037 61.82833 44.999691 4.627318 29.450118-15.558869 57.171267-45.025719 61.80788-29.431527 4.627318-57.150816-15.549573-61.778134-44.984818-4.647768-29.427809 15.517968-57.182421 44.975523-61.822753z" p-id="5509"></path><path d="M573.351469 411.587757a17.490481 17.490481 0 0 1-7.823123 11.020788 17.386371 17.386371 0 0 1-13.4116 1.961359c-0.273289-0.06321-0.706461-0.182193-1.119182 0.410862l-7.765491 10.652685a1.134055 1.134055 0 0 0-0.039042 1.213997 17.269247 17.269247 0 0 1 2.243943 13.318644 17.122378 17.122378 0 0 1-8.068526 10.844173 1.096873 1.096873 0 0 0-0.527986 1.093155l2.058031 13.010033a1.037382 1.037382 0 0 0 0.821726 0.866344c4.569686 1.009495 8.589076 3.863225 11.000338 7.839855a17.174433 17.174433 0 0 1 1.979949 13.39115 1.067128 1.067128 0 0 0 0.412722 1.113605l10.647107 7.759914c0.617224 0.435031 0.951863 0.206361 1.197265 0.024168a17.258093 17.258093 0 0 1 24.194422 5.839456 1.057832 1.057832 0 0 0 1.078282 0.503818l12.998878-2.048736a1.08386 1.08386 0 0 0 0.883076-0.804994 17.373357 17.373357 0 0 1 7.843574-11.020787c3.982208-2.450303 8.882815-3.140032 13.393008-1.970654 0.293739 0.08366 0.706461 0.171038 1.135915-0.392272l7.724591-10.671275a1.039241 1.039241 0 0 0 0.039041-1.182393 17.289698 17.289698 0 0 1-2.234647-13.342813 17.228347 17.228347 0 0 1 8.05923-10.853468 1.082 1.082 0 0 0 0.527986-1.072705l-2.058031-13.019328a1.050396 1.050396 0 0 0-0.821726-0.862626 17.449581 17.449581 0 0 1-11.020788-7.852869 17.399385 17.399385 0 0 1-1.961358-13.381854c0.126419-0.401567-0.057632-0.862626-0.392271-1.126619l-10.647108-7.745041c-0.587478-0.431313-0.963018-0.204502-1.215856-0.042759a17.291557 17.291557 0 0 1-13.333517 2.258815 17.319443 17.319443 0 0 1-10.862764-8.077821 1.033664 1.033664 0 0 0-1.048536-0.514973l-13.030483 2.050596a1.037382 1.037382 0 0 0-0.857049 0.81057z m40.666113 45.02386c2.197465 13.954459-7.352769 27.077897-21.312806 29.273503-13.941445 2.20676-27.077897-7.358347-29.275362-21.32396-2.175156-13.935868 7.334178-27.077897 21.314665-29.284658 13.930291-2.184451 27.079756 7.369501 29.273503 21.335115z" p-id="5510"></path></svg>