<?xml version="1.0" standalone="no"?><!DOCTYPE svg PUBLIC "-//W3C//DTD SVG 1.1//EN" "http://www.w3.org/Graphics/SVG/1.1/DTD/svg11.dtd"><svg t="1736898376965" class="icon" viewBox="0 0 1024 1024" version="1.1" xmlns="http://www.w3.org/2000/svg" p-id="12153" xmlns:xlink="http://www.w3.org/1999/xlink" width="256" height="256"><path d="M882.181661 243.045061a19.649244 19.649244 0 0 0-4.730957-12.868204l-195.546247-223.364278-0.157699-0.126159a19.806942 19.806942 0 0 0-5.235593-4.100163 22.29858 22.29858 0 0 0-3.910925-1.640065l-1.07235-0.346937a19.964641 19.964641 0 0 0-4.573259-0.567715H186.352419C164.432316 0.03154 146.580836 17.88302 146.580836 39.803123V974.482644c0 21.951643 17.85148 39.771583 39.771583 39.771583h656.246897c21.951643 0 39.771583-17.85148 39.771584-39.771583V245.315921c0-0.756953-0.126159-1.482367-0.189239-2.20778z m-530.056488 664.541843c15.486001 0 32.675147-3.37475 42.767857-7.411834l7.75877 40.086981c-9.398836 4.730958-30.656605 9.745773-58.253857 9.745772-78.470817 0-118.904734-48.855022-118.904735-113.511442 0-77.461546 55.257585-120.576339 123.951089-120.576339 26.619521 0 46.83648 5.393292 55.919919 10.092709l-10.439646 40.749315a110.704408 110.704408 0 0 0-43.114794-8.421104c-40.749315 0-72.415191 24.600979-72.415191 75.127606 0 45.448733 26.934919 74.086796 72.762128 74.086796z m222.985801-145.839653h-87.238858v51.851295h81.530169v41.758586h-81.530169v91.275942h-51.535898v-227.022885H575.079435v42.105522z m228.379093 174.477716c-15.832938 5.361752-45.827209 12.805125-75.789941 12.805125-41.411649 0-71.40592-10.439646-92.285212-30.656605-20.879293-19.523085-32.32821-49.170419-31.981274-82.5079 0.315397-75.443004 55.226045-118.557797 129.659778-118.557798 29.300397 0 51.882835 5.708689 62.984815 11.101981l-10.786583 41.096251c-12.458188-5.393292-27.944189-9.777312-52.892106-9.777312-42.767857 0-75.096067 24.254043-75.096067 73.424462 0 46.83648 29.300397 74.433733 71.40592 74.433733 11.795854 0 21.19469-1.324668 25.231774-3.37475v-47.498814h-35.009086v-40.086981h84.526442v119.567068zM186.352419 675.328426V39.771583h460.70065v203.494256c0 10.975822 8.8942 19.901562 19.901562 19.901562h175.644685l0.03154 412.161025H186.352419z m483.661564-229.104506l20.973912-70.049712a17.126066 17.126066 0 0 0 0.536176-7.222596l5.424831-16.65297c0.820033-2.743955-0.283857-5.235593-2.302399-7.285675 0.252318-0.536175 0.630794-0.946192 0.820032-1.545446a7.979548 7.979548 0 0 0-5.267133-9.998091l-7.096436-2.239319a8.011088 8.011088 0 0 0-9.99809 5.267132c-0.157699 0.410016-0.094619 0.851572-0.157699 1.261589-2.617797 0.410016-4.730958 1.513906-5.51945 4.100163l-4.920196 17.283765a16.74759 16.74759 0 0 0-4.352481 7.159516l-21.005452 70.049712a16.968368 16.968368 0 0 0 0.315397 10.628885l-28.543444 100.201682c-1.892383 6.181785-5.487911 33.652878 0.693874 35.545261s19.838482-22.519358 21.699325-28.701143l32.107433-98.908553a16.68451 16.68451 0 0 0 6.528721-8.95728zM300.810053 246.51443l252.506977-94.082977 82.760218 222.134229c1.13543-2.870114 2.491638-5.645609 4.320941-8.168787l3.784766-13.183602a26.934919 26.934919 0 0 1 3.059353-6.528721l-82.066345-220.241846-290.386176 108.181231 140.856377 378.035051 172.963809-64.435643 6.875659-24.127883-167.980535 62.606338L300.778514 246.51443z m387.970062 211.599963l-3.217051 10.786583c-1.640065 5.487911-4.47864 10.408107-8.326485 14.53981l-0.283858 0.851572 3.122432 8.326486-6.591801 2.460098-7.979548 24.5379 40.591616-15.139065-17.283765-46.363384z m-159.244032-102.377922a9.398836 9.398836 0 0 1 6.434102-3.217051l1.734685-0.126159 1.987002 0.630794a4.825577 4.825577 0 0 0 6.434102-3.027813 9.272677 9.272677 0 0 1 7.727231-6.434102l-0.441556-6.749499a1.860843 1.860843 0 0 0-1.230049-1.576986 28.480365 28.480365 0 0 1-18.198417-36.743771 1.703145 1.703145 0 0 0-0.473096-1.892383l-16.369113-14.287492c-0.914652-0.788493-1.482367-0.473096-1.955463-0.220778a28.480365 28.480365 0 0 1-38.856931-13.152062 1.703145 1.703145 0 0 0-1.703145-0.977731l-21.636246 1.450827a1.797764 1.797764 0 0 0-1.576986 1.198509c-2.302399 7.348754-7.601072 13.530539-14.47673 16.936828s-15.044445 3.879385-22.29858 1.230049c-0.441556-0.126159-1.10389-0.378477-1.892383 0.504636l-14.319032 16.337573a1.766224 1.766224 0 0 0-0.220778 1.987002 28.385746 28.385746 0 0 1-13.152062 38.856932 1.766224 1.766224 0 0 0-1.009271 1.703145l1.450827 21.667785a1.734684 1.734684 0 0 0 1.198509 1.545447 28.701143 28.701143 0 0 1 16.968368 14.50827 28.606524 28.606524 0 0 1 1.230049 22.26704 1.766224 1.766224 0 0 0 0.504636 1.892383l16.337573 14.319032c0.883112 0.788493 1.482367 0.473096 1.955463 0.220778a28.385746 28.385746 0 0 1 38.856931 13.152062c0.315397 0.630794 0.977731 1.040811 1.703145 1.009271l21.667786-1.450827a1.734684 1.734684 0 0 0 1.545446-1.19851 28.574984 28.574984 0 0 1 14.50827-16.936828 28.701143 28.701143 0 0 1 21.667786-1.450827 9.020359 9.020359 0 0 1 0.536175-2.712415 5.014815 5.014815 0 0 0-0.189238-3.879386 5.014815 5.014815 0 0 0-2.901654-2.460098 9.461915 9.461915 0 0 1-6.560262-8.389564l-0.662334-10.250408a9.398836 9.398836 0 0 1 5.330213-9.146518c1.230049-0.599255 2.20778-1.640065 2.617796-2.870115s0.283857-2.649336-0.283857-3.784766a9.588074 9.588074 0 0 1 1.261588-10.628885l6.78104-7.75877z m-57.276127 39.645424a42.263221 42.263221 0 0 1-5.614069-84.274124c23.244772-1.545446 43.398651 16.116796 44.944097 39.330027s-16.085256 43.398651-39.330028 44.944097z m127.136601-13.782856a13.498999 13.498999 0 0 1-8.610343-17.441464 0.851572 0.851572 0 0 0-0.220778-0.914651l-7.727231-6.78104c-0.441556-0.378477-0.725413-0.220778-0.946192-0.126158-3.185511 1.671605-7.096436 1.987002-10.534265 0.820032s-6.339483-3.753226-7.884929-7.033357a0.820033 0.820033 0 0 0-0.788493-0.473096l-10.281948 0.693874a0.851572 0.851572 0 0 0-0.725414 0.567715c-1.10389 3.469369-3.627067 6.434102-6.875658 8.042628s-7.127976 1.829304-10.534266 0.599255c-0.220778-0.063079-0.536175-0.189238-0.914651 0.252317l-6.812579 7.727231a1.009271 1.009271 0 0 0-0.126159 0.946192 13.593618 13.593618 0 0 1 0.820032 10.534265 13.656698 13.656698 0 0 1-7.033357 7.88493 0.820033 0.820033 0 0 0-0.504635 0.820032l0.693874 10.250408c0.03154 0.346937 0.252318 0.630794 0.599254 0.725414a13.498999 13.498999 0 0 1 8.641883 17.441463 0.883112 0.883112 0 0 0 0.189238 0.914652l7.758771 6.781039c0.410016 0.378477 0.693874 0.220778 0.914651 0.09462a13.593618 13.593618 0 0 1 10.502726-0.788493c3.469369 1.13543 6.371023 3.753226 7.88493 7.033357 0.157699 0.315397 0.473096 0.473096 0.820032 0.473095l10.250408-0.693873a0.851572 0.851572 0 0 0 0.725414-0.567715 13.467459 13.467459 0 0 1 17.441464-8.641883c0.220778 0.063079 0.536175 0.189238 0.883112-0.220778l6.781039-7.75877a0.946192 0.946192 0 0 0 0.126159-0.946192 13.467459 13.467459 0 0 1 6.213324-18.419195 0.820033 0.820033 0 0 0 0.473096-0.820032l-0.662334-10.250408a0.820033 0.820033 0 0 0-0.599255-0.725414z m-37.879201 28.511904a20.02772 20.02772 0 1 1-2.617796-39.897742 20.02772 20.02772 0 0 1 2.617796 39.866203z" p-id="12154"></path></svg>