<?xml version="1.0" standalone="no"?><!DOCTYPE svg PUBLIC "-//W3C//DTD SVG 1.1//EN" "http://www.w3.org/Graphics/SVG/1.1/DTD/svg11.dtd"><svg t="1736900674900" class="icon" viewBox="0 0 1024 1024" version="1.1" xmlns="http://www.w3.org/2000/svg" p-id="4069" xmlns:xlink="http://www.w3.org/1999/xlink" width="256" height="256"><path d="M768 166.957h44.522v44.521H768z m89.043 0h44.522v44.521h-44.522z m-178.086 0h44.521v44.521h-44.521zM505.188 484.64c-61.061 0-110.748 49.509-110.748 110.348 0 60.838 49.664 110.347 110.748 110.347 61.062 0 110.748-49.509 110.748-110.347 0-60.84-49.664-110.348-110.748-110.348z m0 180.113a69.966 69.966 0 0 1-70.01-69.743 69.944 69.944 0 0 1 70.01-69.744 69.944 69.944 0 0 1 70.01 69.744 69.966 69.966 0 0 1-70.01 69.743z m485.42 28.427V114.4c0-24.576-29.05-36.486-53.648-36.486H46.525c-24.576 0-35.395 11.91-35.395 36.486v779.13c0 24.598 10.82 52.536 35.395 52.536h908.689c24.576 0 35.395-27.96 35.395-52.536V693.181zM55.653 122.435h890.435V256H55.652V122.435z m890.435 623.304v155.826H55.652V300.522h890.435v422.956h2.293l-2.293 22.261zM734.564 635.837l-33.792-16.384c0.69-7.101 1.002-14.826 1.002-23.463a197.9 197.9 0 0 0-1.425-23.663l33.058-16.228a20.257 20.257 0 0 0 9.26-27.18L700.75 444.26a20.19 20.19 0 0 0-12.177-10.373 20.324 20.324 0 0 0-15.939 1.602l-28.204 15.516c-20.235-18.21-46.013-32.523-67.584-43.03v-19.857a20.346 20.346 0 0 0-20.369-20.302H454.634a20.324 20.324 0 0 0-20.369 20.302v17.163c-28.694 9.016-52.647 23.73-75.041 46.08l-33.837-16.384a20.458 20.458 0 0 0-27.158 9.216l-42.274 84.658a20.302 20.302 0 0 0 9.216 27.226l32.88 16.228a191.688 191.688 0 0 0-0.09 47.326l-33.101 16.273a20.257 20.257 0 0 0-9.26 27.18l41.894 84.659a20.413 20.413 0 0 0 27.047 9.327l34.594-16.495c22.416 22.394 46.391 37.13 75.108 46.146v27.626c0 11.22 9.104 20.302 20.368 20.302h101.844a20.324 20.324 0 0 0 20.369-20.302V784.05c21.682-10.574 47.616-24.954 67.895-43.297l30.854 16.005a20.302 20.302 0 0 0 27.781-9.238l40.671-84.658a20.257 20.257 0 0 0-9.46-27.025z m-58.835 75.197l-25.467-13.2a20.391 20.391 0 0 0-24.71 4.585c-21.615 24.487-63.799 43.966-77.667 50.377a20.302 20.302 0 0 0-11.799 18.41v22.817H474.98v-22.817a20.324 20.324 0 0 0-15.783-19.768c-32.412-7.502-56.364-22.15-80.117-49.019a20.435 20.435 0 0 0-24.086-4.897l-29.896 14.27-23.997-48.463 28.249-13.868a20.257 20.257 0 0 0 10.974-22.127 162.616 162.616 0 0 1-3.072-31.344c0-10.04 1.069-20.569 3.206-31.343a20.302 20.302 0 0 0-10.953-22.105l-28.004-13.824 24.198-48.44 29.184 14.136a20.413 20.413 0 0 0 24.197-4.853c23.73-26.869 47.705-41.516 80.117-49.018a20.324 20.324 0 0 0 15.783-19.768v-12.4h61.106v12.4a20.257 20.257 0 0 0 11.799 18.41c13.868 6.389 56.03 25.89 77.668 50.376a20.502 20.502 0 0 0 25.154 4.363l22.951-12.644 23.486 47.371-28.227 13.869a20.257 20.257 0 0 0-10.975 22.127c2.07 10.485 3.117 21.036 3.117 31.343 0 12.711-0.802 22.662-2.516 31.344a20.257 20.257 0 0 0 11.086 22.15l28.917 14.023-22.817 47.527z" fill="#333333" p-id="4070"></path></svg>