<?xml version="1.0" standalone="no"?><!DOCTYPE svg PUBLIC "-//W3C//DTD SVG 1.1//EN" "http://www.w3.org/Graphics/SVG/1.1/DTD/svg11.dtd"><svg t="1736897261896" class="icon" viewBox="0 0 1024 1024" version="1.1" xmlns="http://www.w3.org/2000/svg" p-id="72986" xmlns:xlink="http://www.w3.org/1999/xlink" width="256" height="256"><path d="M0 686.083a332.797 332.797 0 1 0 665.594 0 332.797 332.797 0 1 0-665.594 0z" fill="#CCE4F2" p-id="72987"></path><path d="M883.192 1024H243.198a141.055 141.055 0 0 1-140.799-140.799V140.808A141.055 141.055 0 0 1 243.198 0.01h516.347a88.32 88.32 0 0 1 63.487 25.6l189.695 189.694a38.4 38.4 0 0 1 11.264 27.904v639.994A141.055 141.055 0 0 1 883.19 1024zM243.198 76.809a64 64 0 0 0-64 64V883.2a64 64 0 0 0 64 64h639.994a64 64 0 0 0 64-64V259.08l-179.2-179.198a13.056 13.056 0 0 0-8.447-3.072z" fill="#434260" p-id="72988"></path><path d="M383.996 598.02c-39.935 0-65.023-32.768-65.023-86.527s26.88-85.503 66.047-85.503a59.135 59.135 0 0 1 44.032 20.223l19.456-22.783a87.295 87.295 0 0 0-64.512-28.672c-57.087 0-102.399 44.287-102.399 118.015s43.52 116.479 100.351 116.479a89.343 89.343 0 0 0 70.4-32.768l-19.2-22.272a65.023 65.023 0 0 1-49.152 23.808zM560.38 398.854H491.77v226.302h35.584v-85.76h34.048c49.151 0 85.247-22.527 85.247-72.19s-36.096-68.352-86.271-68.352z m-2.304 113.15h-30.72v-84.222h29.44c36.096 0 54.783 9.727 54.783 39.423s-17.151 44.8-53.503 44.8z m200.958-113.15h-67.84v226.302h35.584v-85.76h33.536c49.152 0 84.991-22.527 84.991-72.19s-35.84-68.352-86.271-68.352z m-2.048 113.15h-30.72v-84.222h29.44c35.84 0 54.528 9.727 54.528 39.423s-16.64 44.8-53.248 44.8z" fill="#434260" p-id="72989"></path></svg>