<?xml version="1.0" standalone="no"?><!DOCTYPE svg PUBLIC "-//W3C//DTD SVG 1.1//EN" "http://www.w3.org/Graphics/SVG/1.1/DTD/svg11.dtd"><svg t="1737347665360" class="icon" viewBox="0 0 1024 1024" version="1.1" xmlns="http://www.w3.org/2000/svg" p-id="16402" xmlns:xlink="http://www.w3.org/1999/xlink" width="200" height="200"><path d="M704 64L960 320 704 320 704 64Z" fill="" p-id="16403"></path><path d="M64 64L64 1024 960 1024 960 384 896 384 896 960 128 960 128 128 640 128 640 64 64 64Z" fill="" p-id="16404"></path><path d="M695.26 676.26707C668.26 711.905165 582.14 737.972262 480 737.972262 377.92 737.972262 291.74 711.921498 264.76 676.26707 259.04 668.721332 256 672.771859 256 676.495729L256 728.809581C256 779.473824 356.28 832 480 832 603.72 832 704 779.473824 704 728.809581L704 676.495729C704 672.755526 700.92 668.705 695.26 676.26707L695.26 676.26707ZM695.58 515.964335C669.06 549.900421 582.56 574.763441 480 574.763441 377.44 574.763441 290.94 549.900421 264.42 515.964335 258.92 508.966116 256 512.764144 256 515.929167L256 582.218829C256 631.821783 356.28 672 480 672 603.72 672 704 631.821783 704 582.218829L704 515.929167C704 512.746561 701.06 508.948532 695.58 515.964335L695.58 515.964335ZM480 320.017956C356.28 320.017956 256 353.864397 256 395.62929L256 431.792013C256 476.088656 356.28 512 480 512 603.72 512 704 476.088656 704 431.792013L704 395.647246C704 353.846442 603.72 320 480 320L480 320.017956Z" fill="" p-id="16405"></path></svg>