<?xml version="1.0" standalone="no"?><!DOCTYPE svg PUBLIC "-//W3C//DTD SVG 1.1//EN" "http://www.w3.org/Graphics/SVG/1.1/DTD/svg11.dtd"><svg t="1736898243000" class="icon" viewBox="0 0 1024 1024" version="1.1" xmlns="http://www.w3.org/2000/svg" p-id="5233" xmlns:xlink="http://www.w3.org/1999/xlink" width="256" height="256"><path d="M870.4 1024H153.6c-35.84 0-64-28.16-64-64V64c0-35.84 28.16-64 64-64h576l204.8 204.8v755.2c0 35.84-28.16 64-64 64z" fill="#F2F2F2" p-id="5234"></path><path d="M934.4 204.8H747.52c-10.24 0-17.92-7.68-17.92-17.92V0" fill="#DDDDDD" p-id="5235"></path><path d="M870.4 1024H153.6c-35.84 0-64-28.16-64-64V640h844.8v320c0 35.84-28.16 64-64 64z" fill="#B9C9D6" p-id="5236"></path><path d="M295.68 736h51.2c12.8 0 24.32 1.28 34.56 3.84s17.92 7.68 25.6 14.08c20.48 16.64 29.44 43.52 29.44 78.08 0 11.52-1.28 21.76-2.56 32s-5.12 17.92-8.96 25.6c-3.84 7.68-8.96 14.08-16.64 20.48-5.12 5.12-10.24 8.96-16.64 11.52s-12.8 5.12-19.2 6.4-15.36 1.28-24.32 1.28h-51.2c-7.68 0-12.8-1.28-16.64-3.84-3.84-2.56-6.4-5.12-6.4-8.96-1.28-3.84-1.28-8.96-1.28-15.36v-140.8c0-8.96 1.28-14.08 5.12-17.92 2.56-5.12 8.96-6.4 17.92-6.4z m14.08 30.72v130.56h44.8c3.84 0 7.68-1.28 11.52-2.56s7.68-3.84 10.24-6.4c12.8-11.52 19.2-29.44 19.2-57.6 0-19.2-2.56-33.28-8.96-42.24s-12.8-15.36-21.76-17.92c-8.96-2.56-17.92-3.84-30.72-3.84h-24.32zM508.16 756.48V896h79.36c6.4 0 11.52 1.28 14.08 5.12 3.84 2.56 5.12 6.4 5.12 11.52s-1.28 8.96-5.12 11.52c-3.84 2.56-7.68 3.84-14.08 3.84h-94.72c-8.96 0-14.08-1.28-17.92-5.12-3.84-3.84-5.12-10.24-5.12-17.92V756.48c0-7.68 1.28-14.08 5.12-17.92 3.84-3.84 7.68-6.4 14.08-6.4 6.4 0 10.24 2.56 14.08 6.4 3.84 3.84 5.12 8.96 5.12 17.92zM670.72 756.48V896h79.36c6.4 0 11.52 1.28 14.08 5.12 3.84 2.56 5.12 6.4 5.12 11.52s-1.28 8.96-5.12 11.52c-3.84 2.56-7.68 3.84-14.08 3.84h-94.72c-8.96 0-14.08-1.28-17.92-5.12-3.84-3.84-5.12-10.24-5.12-17.92V756.48c0-7.68 1.28-14.08 5.12-17.92 3.84-3.84 7.68-6.4 14.08-6.4 6.4 0 10.24 2.56 14.08 6.4 3.84 3.84 5.12 8.96 5.12 17.92z" fill="#FFFFFF" p-id="5237"></path><path d="M540.16 270.08c0-16.64 10.24-32 25.6-37.12-3.84-14.08-8.96-26.88-16.64-39.68-15.36 6.4-32 3.84-44.8-7.68-11.52-11.52-15.36-29.44-7.68-44.8-12.8-7.68-25.6-12.8-39.68-16.64-6.4 15.36-20.48 25.6-37.12 25.6-16.64 0-32-10.24-37.12-25.6-14.08 3.84-26.88 8.96-39.68 16.64 6.4 15.36 3.84 32-7.68 44.8s-29.44 15.36-44.8 7.68c-7.68 12.8-12.8 25.6-16.64 39.68 15.36 6.4 25.6 20.48 25.6 37.12s-10.24 32-25.6 37.12c3.84 14.08 8.96 26.88 16.64 39.68 15.36-6.4 32-3.84 44.8 7.68 11.52 11.52 15.36 29.44 7.68 44.8 12.8 7.68 25.6 12.8 39.68 16.64 6.4-15.36 20.48-25.6 37.12-25.6s32 10.24 37.12 25.6c14.08-3.84 26.88-8.96 39.68-16.64-6.4-15.36-3.84-32 7.68-44.8 11.52-11.52 29.44-15.36 44.8-7.68 7.68-12.8 12.8-25.6 16.64-39.68-15.36-5.12-25.6-20.48-25.6-37.12z m-120.32 40.96c-21.76 0-39.68-17.92-39.68-39.68s17.92-39.68 39.68-39.68 39.68 17.92 39.68 39.68c0 20.48-17.92 39.68-39.68 39.68z" fill="#DDDDDD" p-id="5238"></path><path d="M674.56 456.96c3.84-11.52 14.08-19.2 24.32-19.2 0-10.24 0-20.48-2.56-29.44-11.52 1.28-23.04-3.84-28.16-14.08-5.12-10.24-3.84-23.04 3.84-32-6.4-7.68-14.08-14.08-23.04-19.2-6.4 8.96-19.2 12.8-30.72 10.24-11.52-3.84-19.2-14.08-19.2-24.32-10.24 0-20.48 0-29.44 2.56 1.28 11.52-3.84 23.04-14.08 28.16-10.24 5.12-23.04 3.84-32-3.84-7.68 6.4-14.08 14.08-19.2 23.04 8.96 6.4 12.8 19.2 10.24 30.72-3.84 11.52-14.08 19.2-24.32 19.2 0 10.24 0 20.48 2.56 29.44 11.52-1.28 23.04 3.84 28.16 14.08s3.84 23.04-3.84 32c6.4 7.68 14.08 14.08 23.04 19.2 6.4-8.96 19.2-12.8 30.72-10.24 11.52 3.84 19.2 14.08 19.2 24.32 10.24 0 20.48 0 29.44-2.56-1.28-11.52 3.84-23.04 14.08-28.16s23.04-3.84 32 3.84c7.68-6.4 14.08-14.08 19.2-23.04-8.96-7.68-12.8-19.2-10.24-30.72z m-88.32 2.56c-15.36-5.12-23.04-20.48-19.2-34.56s20.48-23.04 34.56-19.2c15.36 5.12 23.04 20.48 19.2 34.56s-19.2 23.04-34.56 19.2z" fill="#DDDDDD" p-id="5239"></path></svg>