<?xml version="1.0" standalone="no"?><!DOCTYPE svg PUBLIC "-//W3C//DTD SVG 1.1//EN" "http://www.w3.org/Graphics/SVG/1.1/DTD/svg11.dtd"><svg t="1736859488521" class="icon" viewBox="0 0 1024 1024" version="1.1" xmlns="http://www.w3.org/2000/svg" p-id="13161" xmlns:xlink="http://www.w3.org/1999/xlink" width="200" height="200"><path d="M123.1 387.1c204-91.4 418.6-151.3 610.1-280.2l133.9 280.2h-744z" fill="#FF9191" p-id="13162"></path><path d="M733.7 83.1c-4.9-0.1-9.7 1.3-13.8 4.1-73.9 49.7-151.6 89.2-231.3 124.3-12 5.3-17.5 19.3-12.2 31.3 5.3 12 19.3 17.5 31.3 12.2C581 222.7 653.1 185.3 723 140.5l9.1 18.8c5.5 11.9 19.6 17.1 31.5 11.7 11.9-5.5 17.1-19.6 11.7-31.5-0.1-0.3-0.2-0.5-0.4-0.8l-20.3-42.2c-3.9-8-11.9-13.2-20.9-13.4z" fill="#444852" p-id="13163"></path><path d="M202.2 313.1c211-34.6 395.1-32.3 639.4-112.8l46.8 265.1-686.2-152.3z" fill="#FFFFFF" p-id="13164"></path><path d="M835.7 914.5c43.7 0 79.2-35.5 79.2-79.2V376.1c0-26.2-21.3-47.5-47.5-47.5H493.7c-14.1 0-27.5-6.3-36.5-17.1l-50.7-60.8c-9-10.8-22.4-17.1-36.5-17.1H154.7c-26.2 0-47.5 21.3-47.5 47.5v554.3c0 43.7 35.5 79.2 79.2 79.2l649.3-0.1z" fill="#FFEE91" p-id="13165"></path><path d="M843.6 328.6v475.1c0 21.9-17.7 39.6-39.6 39.6H107.6c4 40 37.7 71.3 78.8 71.3h649.3c43.7 0 79.2-35.5 79.2-79.2V376.1c0-26.2-21.3-47.5-47.5-47.5h-23.8z" fill="#F9D151" p-id="13166"></path><path d="M154.7 209.8c-39.1 0-71.3 32.2-71.3 71.3v554.3c0 56.6 46.4 102.9 102.9 102.9h649.3c56.6 0 102.9-46.4 102.9-102.9V376.1c0-39.1-32.2-71.3-71.3-71.3H493.7c-7.1 0-13.7-3.1-18.2-8.6l-50.7-60.8c-13.5-16.2-33.6-25.6-54.7-25.6H154.7z m0 47.5H370c7.1 0 13.7 3.1 18.2 8.6l50.7 60.8c13.5 16.2 33.6 25.6 54.7 25.6h373.7c13.4 0 23.8 10.4 23.8 23.8v459.3c0 30.9-24.5 55.4-55.4 55.4H186.4c-30.9 0-55.4-24.5-55.4-55.4V281.1c0-13.4 10.3-23.8 23.7-23.8z" fill="#444852" p-id="13167"></path><path d="M834.3 177.8c-81.2 26.7-155.5 44.2-226.7 56.9-31.5 5.4-23 52.7 8.4 46.8 65-11.6 133.7-28.3 206.9-51l4.5 25.5c5.5 31.2 52.3 22.9 46.8-8.3l-9.1-51.5c-2.5-14.1-16.7-22.9-30.8-18.4z" fill="#444852" p-id="13168"></path></svg>