<?xml version="1.0" standalone="no"?><!DOCTYPE svg PUBLIC "-//W3C//DTD SVG 1.1//EN" "http://www.w3.org/Graphics/SVG/1.1/DTD/svg11.dtd"><svg t="1736898413979" class="icon" viewBox="0 0 1024 1024" version="1.1" xmlns="http://www.w3.org/2000/svg" p-id="13139" xmlns:xlink="http://www.w3.org/1999/xlink" width="256" height="256"><path d="M704 128H192c-35.3 0-64 28.7-64 64v640c0 35.3 28.7 64 64 64h640c35.3 0 64-28.7 64-64V320L704 128z m0 90.5L805.5 320H704V218.5zM832 832H192V192h448v128c0 35.3 28.7 64 64 64h128v448z" fill="#231815" p-id="13140"></path><path d="M360.5 550.8h46.9V712h-46.9zM539.2 633.5l-51.3-79.1-2.4-3.6h-46.1V712h45.3v-85.1l55.8 85.1h44V550.8h-45.3zM616.5 550.8h46.9V712h-46.9z" fill="#231815" p-id="13141"></path></svg>