<?xml version="1.0" standalone="no"?><!DOCTYPE svg PUBLIC "-//W3C//DTD SVG 1.1//EN" "http://www.w3.org/Graphics/SVG/1.1/DTD/svg11.dtd"><svg t="1736899468451" class="icon" viewBox="0 0 1024 1024" version="1.1" xmlns="http://www.w3.org/2000/svg" p-id="70408" xmlns:xlink="http://www.w3.org/1999/xlink" width="256" height="256"><path d="M557.056 109.568L389.12 277.504c49.152-14.336 102.4-14.336 153.6-2.048 7.168 2.048 14.336 5.12 19.456 7.168l82.944-82.944c49.152-49.152 129.024-49.152 178.176 0 49.152 49.152 49.152 129.024 0 178.176l-112.64 112.64-65.536 65.536c-16.384 16.384-34.816 26.624-56.32 31.744-41.984 10.24-88.064 2.048-121.856-31.744-22.528-22.528-33.792-51.2-34.816-79.872-10.24 3.072-19.456 9.216-26.624 17.408L327.68 572.416c12.288 26.624 28.672 53.248 51.2 73.728 31.744 31.744 72.704 54.272 112.64 65.536 65.536 17.408 136.192 9.216 193.536-26.624 17.408-10.24 34.816-22.528 49.152-38.912l178.176-178.176c98.304-98.304 98.304-259.072 0-358.4-96.256-98.304-257.024-98.304-355.328 0zM634.88 746.496c-56.32 16.384-116.736 14.336-173.056-5.12L378.88 824.32c-49.152 49.152-129.024 49.152-178.176 0s-49.152-129.024 0-178.176L378.88 467.968c16.384-16.384 34.816-26.624 56.32-31.744 41.984-10.24 88.064-2.048 121.856 31.744 22.528 22.528 33.792 51.2 34.816 80.896 9.216-3.072 17.408-10.24 26.624-17.408l77.824-77.824c-12.288-26.624-28.672-53.248-51.2-73.728-33.792-31.744-72.704-54.272-112.64-65.536-65.536-17.408-136.192-9.216-194.56 26.624-17.408 10.24-34.816 22.528-49.152 38.912L110.592 556.032c-98.304 98.304-98.304 259.072 0 358.4s259.072 98.304 358.4 0L634.88 746.496z" fill="#BABABA" p-id="70409"></path></svg>