<?xml version="1.0" standalone="no"?><!DOCTYPE svg PUBLIC "-//W3C//DTD SVG 1.1//EN" "http://www.w3.org/Graphics/SVG/1.1/DTD/svg11.dtd"><svg t="1736866137795" class="icon" viewBox="0 0 1024 1024" version="1.1" xmlns="http://www.w3.org/2000/svg" p-id="4142" xmlns:xlink="http://www.w3.org/1999/xlink" width="200" height="200"><path d="M182.85711 1023.990491a109.028494 109.028494 0 0 1-77.58623-32.127977A108.991922 108.991922 0 0 1 73.142903 914.285427V109.714573a108.982779 108.982779 0 0 1 32.127977-77.567945A109.001065 109.001065 0 0 1 182.85711 0.000366h402.285427v255.999817a109.833064 109.833064 0 0 0 109.714207 109.714207h255.999818v548.571037a108.991922 108.991922 0 0 1-32.13712 77.577087A109.019351 109.019351 0 0 1 841.142354 1023.990491z m259.766672-183.771297h70.153093v-66.532524h-70.153093z m81.956513-352.200891a51.044535 51.044535 0 0 1 18.285701 41.700541 68.991951 68.991951 0 0 1-7.95428 32.786263 204.479854 204.479854 0 0 1-37.129116 45.32111 177.737016 177.737016 0 0 0-34.468547 44.598826 146.989609 146.989609 0 0 0-10.843421 61.476527v11.812563h50.861678a134.537047 134.537047 0 0 1 7.231995-49.371393 138.221616 138.221616 0 0 1 40.0274-46.28111 217.773559 217.773559 0 0 0 44.114254-47.98168 98.294787 98.294787 0 0 0 14.701704-52.306248 93.961076 93.961076 0 0 0-30.37255-72.082235c-23.049126-21.275413-55.48796-32.054834-96.429645-32.054834a139.501615 139.501615 0 0 0-84.379369 24.585125 115.355346 115.355346 0 0 0-45.558824 81.005657l63.643383 14.701704a85.275368 85.275368 0 0 1 17.599987-49.654822 61.055956 61.055956 0 0 1 49.170251-21.211413 63.652526 63.652526 0 0 1 41.508542 12.946276z m135.999903-229.202122l0.585142-215.862703a36.571402 36.571402 0 0 1 62.116527-30.655978l215.277561 215.27756a36.571402 36.571402 0 0 1-30.665121 62.107385l-215.862703 0.585142a36.571402 36.571402 0 0 1-31.442264-31.43312z" fill="#AAB0C5" p-id="4143"></path></svg>