<?xml version="1.0" standalone="no"?><!DOCTYPE svg PUBLIC "-//W3C//DTD SVG 1.1//EN" "http://www.w3.org/Graphics/SVG/1.1/DTD/svg11.dtd"><svg t="1737348115891" class="icon" viewBox="0 0 1024 1024" version="1.1" xmlns="http://www.w3.org/2000/svg" p-id="26143" xmlns:xlink="http://www.w3.org/1999/xlink" width="200" height="200"><path d="M921.6 225.28v783.36c0 8.192-7.168 15.36-15.36 15.36H117.76c-8.192 0-15.36-7.168-15.36-15.36V15.36c0-8.192 7.168-15.36 15.36-15.36h578.56l225.28 225.28" fill="#E7E7E7" p-id="26144"></path><path d="M921.6 225.28h-209.92c-8.704 0-15.36-6.656-15.36-15.36V0l225.28 225.28z" fill="#CBCBCB" opacity=".5" p-id="26145"></path><path d="M363.008 461.312c-6.144-4.608-15.872-7.168-28.672-7.168h-43.008v60.928h43.008c13.312 0 22.528-2.56 28.672-7.168 6.144-4.608 9.216-12.8 9.216-23.552 0-10.752-3.072-18.432-9.216-23.04zM495.104 460.8l-28.16 79.36h57.856L496.128 460.8z" fill="#6477E7" p-id="26146"></path><path d="M102.4 355.328v327.68h819.2v-327.68H102.4z m233.984 184.832H291.84V609.28h-29.696V429.056h74.752c43.52 0 65.536 18.432 65.536 55.296 0 37.376-22.016 55.808-66.048 55.808z m213.504 69.12l-16.384-45.056H457.728l-16.384 45.056H409.6l69.12-180.736h33.792l69.12 180.736h-31.744z m172.544 0l-71.168-83.456-22.016 21.504V609.28H599.04V429.056h29.696v84.992l83.968-84.992h37.376L670.72 506.368l91.136 102.912h-39.424z" fill="#6477E7" p-id="26147"></path></svg>