<?xml version="1.0" standalone="no"?><!DOCTYPE svg PUBLIC "-//W3C//DTD SVG 1.1//EN" "http://www.w3.org/Graphics/SVG/1.1/DTD/svg11.dtd"><svg t="1736895741809" class="icon" viewBox="0 0 1024 1024" version="1.1" xmlns="http://www.w3.org/2000/svg" p-id="24000" xmlns:xlink="http://www.w3.org/1999/xlink" width="256" height="256"><path d="M160 32c-12.0064 0-24.8064 4.8-33.6 14.4-8.8064 9.6-14.4 21.6064-14.4 33.6v864c0 12.0064 4.8 24.8064 14.4 33.6 9.6 9.6 21.6064 14.4 33.6 14.4h704c12.0064 0 24.8064-4.8 33.6-14.4 9.6-9.6 14.4-21.6064 14.4-33.6v-640L640 32H160z" fill="#FF5562" p-id="24001"></path><path d="M912 304h-224c-12.0064 0-24.8064-4.8-33.6-14.4C644.8 280.7936 640 267.9936 640 256V32l272 272z" fill="#FFBBC0" p-id="24002"></path><path d="M696 843.2c-50.4064 0-95.2064-86.4-119.2064-142.4-39.9872-16.8064-83.9936-32-126.3872-42.4064-37.6064 24.8064-100.8128 61.6064-149.6064 61.6064-30.4 0-52.0064-15.2064-60.0064-41.6-6.4-21.6064-0.7936-36.8 5.6064-44.8 12.8-17.6 39.2064-26.4064 79.2064-26.4064 32 0 72.7936 5.6064 118.4 16.8064 29.5936-20.8 59.1872-44.8 85.5936-70.4-12.0064-56-24.8064-146.4064 8-188.0064 16-19.9936 40.8064-26.3936 70.4-17.6 32.8064 9.6 44.8 29.6064 48.8064 44.8 13.5936 54.4-48.8064 128-91.2128 171.2 9.6 37.6064 21.6064 76.8 36.8128 112.8064 60.8 27.2 132.7872 67.2 140.8 111.2064 3.2 15.1936-1.6128 29.5936-13.6064 41.6-10.4064 8.7936-21.6064 13.5936-33.6 13.5936z m-74.4064-121.6c30.4128 61.6064 59.2128 90.4064 74.4064 90.4064 2.4064 0 5.6064-0.8064 10.4064-4.8128 5.5936-5.5936 5.5936-9.6 4.7872-12.8-3.2-16-28.8-42.3936-89.6-72.7936z m-295.9872-82.4064c-39.2064 0-50.4064 9.6-53.6064 13.6064-0.8064 1.6-4.0064 5.6064-0.8064 16.8064 2.4064 9.6 8.8064 19.2 29.6064 19.2 25.6 0 62.4-14.4128 105.6-40.0128-31.2064-6.4-58.4064-9.6-80.8064-9.6z m158.4-4.7872c25.6 7.1936 51.9936 16 76.8 25.6-8.8064-23.2064-16-47.2064-22.4-70.4a1470.2848 1470.2848 0 0 1-54.4 44.8z m99.2-258.4064c-8.8064 0-15.2064 3.2-20.8128 9.6-16.7936 20.8-18.3936 73.6-5.5936 140.8 48.8064-52.0064 75.2-100.0064 68.8-125.6064-0.8064-3.9936-4.0064-15.1936-26.4064-21.5936-6.4-2.4064-11.1872-3.2-16-3.2z" fill="#FFFFFF" p-id="24003"></path></svg>