<?xml version="1.0" standalone="no"?><!DOCTYPE svg PUBLIC "-//W3C//DTD SVG 1.1//EN" "http://www.w3.org/Graphics/SVG/1.1/DTD/svg11.dtd"><svg t="1736896988701" class="icon" viewBox="0 0 1024 1024" version="1.1" xmlns="http://www.w3.org/2000/svg" p-id="60337" xmlns:xlink="http://www.w3.org/1999/xlink" width="256" height="256"><path d="M491.52 1007.616c-119.808-4.096-194.56-39.936-214.016-103.424l-2.048-7.168v-122.88c0-141.312 0-143.36 7.168-165.888 13.312-39.936 46.08-66.56 95.232-77.824l11.264-2.048h139.264c99.328 0 141.312 0 145.408-2.048 28.672-6.144 46.08-11.264 63.488-24.576 21.504-15.36 37.888-41.984 44.032-70.656 6.144-21.504 6.144-19.456 6.144-93.184v-68.608h99.328l9.216 2.048c51.2 15.36 90.112 63.488 105.472 137.216 6.144 28.672 6.144 30.72 6.144 103.424 0 70.656 0 70.656-6.144 95.232-6.144 22.528-11.264 41.984-21.504 61.44-19.456 37.888-48.128 64.512-83.968 76.8-21.504 7.168-4.096 6.144-204.8 7.168H509.952v34.816h240.64V911.36c-2.048 7.168-4.096 17.408-9.216 26.624-6.144 9.216-21.504 24.576-30.72 32.768-32.768 21.504-81.92 34.816-147.456 37.888h-71.68z m165.888-76.8c22.528-4.096 39.936-26.624 35.84-49.152-4.096-19.456-17.408-32.768-35.84-35.84-28.672-4.096-53.248 21.504-49.152 49.152 4.096 21.504 21.504 34.816 41.984 35.84h7.168zM141.312 755.712c-26.624-6.144-53.248-21.504-72.704-46.08-35.84-44.032-53.248-118.784-51.2-211.968 2.048-57.344 9.216-101.376 28.672-137.216 22.528-48.128 57.344-74.752 103.424-83.968 9.216-2.048 11.264-2.048 187.392-2.048h179.2c2.048 0 2.048-2.048 2.048-17.408v-17.408H277.504v-63.488c0-68.608 0-66.56 6.144-79.872 21.504-44.032 79.872-70.656 176.128-77.824 7.168 0 24.576-2.048 41.984-2.048C608.256 14.336 685.056 33.792 727.04 71.68c4.096 4.096 9.216 11.264 13.312 13.312 6.144 7.168 13.312 22.528 17.408 34.816l2.048 7.168v130.048c0 119.808 0 130.048-2.048 137.216-2.048 11.264-7.168 26.624-11.264 34.816-15.36 28.672-41.984 49.152-77.824 59.392-22.528 6.144-13.312 6.144-165.888 7.168-152.576 0-143.36 0-163.84 6.144-41.984 11.264-72.704 44.032-83.968 90.112-6.144 21.504-6.144 19.456-6.144 93.184v70.656h-46.08c-44.032 2.048-57.344 2.048-61.44 0z m253.952-580.608c17.408-7.168 28.672-28.672 24.576-46.08-4.096-17.408-15.36-30.72-30.72-34.816-24.576-7.168-51.2 7.168-55.296 34.816-4.096 21.504 7.168 41.984 28.672 48.128 4.096 2.048 7.168 2.048 15.36 2.048 10.24 0 12.288 0 17.408-4.096z" fill="#FED142" p-id="60338"></path><path d="M141.312 755.712c-26.624-6.144-53.248-21.504-72.704-46.08-35.84-44.032-53.248-118.784-51.2-211.968 2.048-57.344 9.216-101.376 28.672-137.216 22.528-48.128 57.344-74.752 103.424-83.968 9.216-2.048 11.264-2.048 187.392-2.048h179.2c2.048 0 2.048-2.048 2.048-17.408v-17.408H277.504v-63.488c0-68.608 0-66.56 6.144-79.872 21.504-44.032 79.872-70.656 176.128-77.824 7.168 0 24.576-2.048 41.984-2.048C608.256 14.336 685.056 33.792 727.04 71.68c4.096 4.096 9.216 11.264 13.312 13.312 6.144 7.168 13.312 22.528 17.408 34.816l2.048 7.168v130.048c0 119.808 0 130.048-2.048 137.216-2.048 11.264-7.168 26.624-11.264 34.816-15.36 28.672-41.984 49.152-77.824 59.392-22.528 6.144-13.312 6.144-165.888 7.168-152.576 0-143.36 0-163.84 6.144-41.984 11.264-72.704 44.032-83.968 90.112-6.144 21.504-6.144 19.456-6.144 93.184v70.656h-46.08c-44.032 2.048-57.344 2.048-61.44 0z m253.952-580.608c17.408-7.168 28.672-28.672 24.576-46.08-4.096-17.408-15.36-30.72-30.72-34.816-24.576-7.168-51.2 7.168-55.296 34.816-4.096 21.504 7.168 41.984 28.672 48.128 4.096 2.048 7.168 2.048 15.36 2.048 10.24 0 12.288 0 17.408-4.096z" fill="#3571A3" p-id="60339"></path></svg>