<?xml version="1.0" standalone="no"?><!DOCTYPE svg PUBLIC "-//W3C//DTD SVG 1.1//EN" "http://www.w3.org/Graphics/SVG/1.1/DTD/svg11.dtd"><svg t="1736899289145" class="icon" viewBox="0 0 1024 1024" version="1.1" xmlns="http://www.w3.org/2000/svg" p-id="69401" xmlns:xlink="http://www.w3.org/1999/xlink" width="256" height="256"><path d="M177.152 655.36v-24.576c58.368 0 88.064-25.6 88.064-75.776V177.152c0-20.48-13.312-30.72-39.936-30.72-35.84 0-65.536 11.264-88.064 34.816C114.688 204.8 97.28 240.64 87.04 286.72L61.44 280.576l22.528-174.08c12.288 2.048 24.576 3.072 35.84 4.096 11.264 1.024 21.504 2.048 32.768 2.048h315.392c11.264 0 23.552-1.024 34.816-2.048 12.288-1.024 24.576-2.048 36.864-4.096v171.008l-22.528 3.072c-6.144-87.04-50.176-131.072-130.048-131.072-27.648 0-40.96 9.216-40.96 27.648v377.856c0 50.176 29.696 75.776 88.064 75.776V655.36H177.152z" fill="#90C9C4" p-id="69402"></path><path d="M600.064 917.504v-24.576c58.368 0 88.064-25.6 88.064-75.776V440.32c0-20.48-13.312-30.72-39.936-30.72-35.84 0-65.536 11.264-88.064 34.816-22.528 23.552-38.912 58.368-50.176 105.472l-25.6-6.144 22.528-174.08c12.288 2.048 24.576 3.072 35.84 4.096 11.264 1.024 21.504 2.048 32.768 2.048H890.88c11.264 0 23.552-1.024 34.816-2.048 12.288-1.024 24.576-2.048 36.864-4.096v171.008l-22.528 3.072c-6.144-87.04-50.176-131.072-130.048-131.072-27.648 0-40.96 9.216-40.96 27.648v377.856c0 50.176 29.696 75.776 88.064 75.776v24.576H600.064z" fill="#4FA39A" p-id="69403"></path></svg>