<?xml version="1.0" standalone="no"?><!DOCTYPE svg PUBLIC "-//W3C//DTD SVG 1.1//EN" "http://www.w3.org/Graphics/SVG/1.1/DTD/svg11.dtd"><svg t="1736895467850" class="icon" viewBox="0 0 1024 1024" version="1.1" xmlns="http://www.w3.org/2000/svg" p-id="17208" xmlns:xlink="http://www.w3.org/1999/xlink" width="256" height="256"><path d="M288 938.666667h618.666667a10.666667 10.666667 0 0 0 10.666666-10.666667V298.666667H736c-17.642667 0-32-14.357333-32-32V85.333333H288a10.666667 10.666667 0 0 0-10.666667 10.666667v832a10.666667 10.666667 0 0 0 10.666667 10.666667z" fill="#FFFFFF" p-id="17209"></path><path d="M912.917333 277.333333L725.333333 89.749333V266.666667a10.666667 10.666667 0 0 0 10.666667 10.666666h176.917333z" fill="#FFFFFF" p-id="17210"></path><path d="M929.290667 263.541333L739.125333 73.376A31.765333 31.765333 0 0 0 716.501333 64H288c-17.642667 0-32 14.357333-32 32v832c0 17.642667 14.357333 32 32 32h618.666667c17.642667 0 32-14.357333 32-32V286.165333c0-8.533333-3.338667-16.576-9.376-22.624zM725.333333 89.749333L912.917333 277.333333H736a10.666667 10.666667 0 0 1-10.666667-10.666666V89.749333zM906.666667 938.666667H288a10.666667 10.666667 0 0 1-10.666667-10.666667V96a10.666667 10.666667 0 0 1 10.666667-10.666667h416v181.333334c0 17.642667 14.357333 32 32 32h181.333333v629.333333a10.666667 10.666667 0 0 1-10.666666 10.666667z" fill="#605E5C" opacity=".64" p-id="17211"></path><path d="M842.666667 682.666667H725.333333a10.666667 10.666667 0 0 1-10.666666-10.666667v-21.333333a10.666667 10.666667 0 0 1 10.666666-10.666667h117.333334a10.666667 10.666667 0 0 1 10.666666 10.666667v21.333333a10.666667 10.666667 0 0 1-10.666666 10.666667z" fill="#134A2C" p-id="17212"></path><path d="M672 682.666667H554.666667a10.666667 10.666667 0 0 1-10.666667-10.666667v-21.333333a10.666667 10.666667 0 0 1 10.666667-10.666667h117.333333a10.666667 10.666667 0 0 1 10.666667 10.666667v21.333333a10.666667 10.666667 0 0 1-10.666667 10.666667z" fill="#185C37" p-id="17213"></path><path d="M842.666667 597.333333H725.333333a10.666667 10.666667 0 0 1-10.666666-10.666666v-21.333334a10.666667 10.666667 0 0 1 10.666666-10.666666h117.333334a10.666667 10.666667 0 0 1 10.666666 10.666666v21.333334a10.666667 10.666667 0 0 1-10.666666 10.666666z" fill="#21A366" p-id="17214"></path><path d="M672 597.333333H554.666667a10.666667 10.666667 0 0 1-10.666667-10.666666v-21.333334a10.666667 10.666667 0 0 1 10.666667-10.666666h117.333333a10.666667 10.666667 0 0 1 10.666667 10.666666v21.333334a10.666667 10.666667 0 0 1-10.666667 10.666666z" fill="#107C41" p-id="17215"></path><path d="M842.666667 512H725.333333a10.666667 10.666667 0 0 1-10.666666-10.666667v-21.333333a10.666667 10.666667 0 0 1 10.666666-10.666667h117.333334a10.666667 10.666667 0 0 1 10.666666 10.666667v21.333333a10.666667 10.666667 0 0 1-10.666666 10.666667z" fill="#33C481" p-id="17216"></path><path d="M672 512H554.666667a10.666667 10.666667 0 0 1-10.666667-10.666667v-21.333333a10.666667 10.666667 0 0 1 10.666667-10.666667h117.333333a10.666667 10.666667 0 0 1 10.666667 10.666667v21.333333a10.666667 10.666667 0 0 1-10.666667 10.666667z" fill="#21A366" p-id="17217"></path><path d="M128 789.333333h341.333333a42.666667 42.666667 0 0 0 42.666667-42.666666V405.333333a42.666667 42.666667 0 0 0-42.666667-42.666666H128a42.666667 42.666667 0 0 0-42.666667 42.666666v341.333334a42.666667 42.666667 0 0 0 42.666667 42.666666z" fill="#107C41" p-id="17218"></path><path d="M180.8 704l84.096-128.362667L187.861333 448h61.994667l42.048 81.589333c3.861333 7.733333 6.517333 13.504 7.968 17.312h0.544c2.794667-6.186667 5.685333-12.192 8.704-18.026666L354.069333 448h56.906667l-79.018667 126.933333L412.981333 704H352.426667l-48.576-89.621333a74.122667 74.122667 0 0 1-5.802667-11.957334h-0.714667c-0.853333 2.858667-2.72 6.72-5.610666 11.605334L241.706667 704h-60.906667z" fill="#F9F7F7" p-id="17219"></path></svg>