<?xml version="1.0" standalone="no"?><!DOCTYPE svg PUBLIC "-//W3C//DTD SVG 1.1//EN" "http://www.w3.org/Graphics/SVG/1.1/DTD/svg11.dtd"><svg t="1736898452697" class="icon" viewBox="0 0 1024 1024" version="1.1" xmlns="http://www.w3.org/2000/svg" p-id="14319" xmlns:xlink="http://www.w3.org/1999/xlink" width="256" height="256"><path d="M662.022 79a8 8 0 0 1 5.657 2.343L860.657 274.32a8 8 0 0 1 2.343 5.657V497h-16V283.29L658.708 94.999H119A4 4 0 0 0 115 99v844a4 4 0 0 0 4 4h724a4 4 0 0 0 4-4v-56h16v56c0 10.93-8.769 19.813-19.656 19.997L843 963H119c-11.046 0-20-8.954-20-20V99c0-11.046 8.954-20 20-20z" fill="#AD2B38" p-id="14320"></path><path d="M483 278v64H293v-64h190z m-227 0v64h-64v-64h64zM659 433v64H293v-64h366z m-403 0v64h-64v-64h64z" fill="#EFD3D5" p-id="14321"></path><path d="M620 159a8 8 0 0 1 7.996 7.75l0.004 0.25v149.83l0.007 0.127a4.008 4.008 0 0 0 3.909 3.69l0.2-0.001 0.231-0.003H781a8 8 0 0 1 0.25 15.996l-0.25 0.004-148.569-0.001-0.197 0.004c-10.77 0.13-19.716-8.31-20.217-19.07l-0.017-0.462V167a8 8 0 0 1 8-8z" fill="#AD2B38" p-id="14322"></path><path d="M295.681 813.735v-79.689L363.856 588h-56.661l-18.786 50.298c-6.363 16.968-12.423 32.724-18.786 50.298h-1.212c-6.363-17.574-12.12-33.33-18.18-50.298L231.445 588h-57.57l67.872 146.046v79.689h53.934z m117.867 0l13.029-51.813h66.66l13.029 51.813h56.964L493.237 588h-64.842l-69.993 225.735h55.146z m69.387-93.627h-46.056l4.848-19.089c5.757-22.422 11.817-48.783 17.271-72.417h1.212c6.06 23.028 11.817 49.995 17.877 72.417l4.848 19.089z m152.409 93.627V736.47c0-22.422-4.242-56.055-6.969-78.174h1.212l18.18 53.934 30.603 82.416h29.694l30.3-82.416 18.786-53.934h1.515c-3.03 22.119-7.272 55.752-7.272 78.174v77.265h49.389V588H742l-34.542 97.566c-4.242 13.029-7.878 27.27-12.423 40.905h-1.515c-4.242-13.635-7.878-27.876-12.423-40.905L645.343 588h-58.479v225.735h48.48z m359.358 0v-45.45h-87.87V588h-54.237v225.735h142.107z" fill="#EFD3D5" p-id="14323"></path><path d="M222.589 565a16 16 0 0 1 14.862 10.075l0.127 0.327 18.865 50.515 1.573 4.396 2.349 6.539 4.2-11.152 18.785-50.298a16 16 0 0 1 14.638-10.398l0.351-0.004H355c11.59 0 19.295 11.918 14.643 22.45l-0.145 0.318-66.673 142.827v76.14c0 8.625-6.824 15.656-15.368 15.988l-0.317 0.009-0.315 0.003h-53.934c-8.731 0-15.83-6.994-15.997-15.685l-0.003-0.315v-76.152l-66.382-142.84c-4.83-10.394 2.512-22.26 13.817-22.729l0.343-0.01 0.35-0.004h57.57z m261.792 0a16 16 0 0 1 15.175 10.928l0.107 0.333 62.345 201.069V581c0-8.731 6.994-15.83 15.685-15.997l0.315-0.003h58.479a16 16 0 0 1 14.898 10.165l0.125 0.33 33.879 92.449 32.672-92.284a16 16 0 0 1 14.385-10.645l0.348-0.011 0.35-0.004h58.782c8.731 0 15.83 6.994 16 15.685v226.05c0 8.731-6.994 15.83-15.685 15.997l-0.315 0.003h-49.389c-8.731 0-15.83-6.994-15.997-15.685l-0.003-0.315v-47.057l-12.312 33.49a16 16 0 0 1-14.314 10.463l-0.35 0.011-0.353 0.004h-29.694a16 16 0 0 1-14.873-10.102l-0.126-0.328-12.027-32.388v45.907c0 8.625-6.824 15.656-15.368 15.988l-0.317 0.009-0.315 0.003h-48.48c-4.68 0-8.891-2.01-11.817-5.213a15.861 15.861 0 0 1-11.398 5.208l-0.419 0.005H497.41a16 16 0 0 1-15.428-11.761l-0.089-0.337-9.987-39.716h-41.711l-9.986 39.716a16 16 0 0 1-14.822 12.083l-0.346 0.011-0.349 0.004h-55.146c-10.672 0-18.32-10.235-15.375-20.43l0.093-0.309 69.993-225.735a16 16 0 0 1 14.932-11.257l0.35-0.004h64.842z m413.595 0c8.731 0 15.83 6.994 15.997 15.685l0.003 0.315v164.284l71.87 0.001c8.625 0 15.656 6.824 15.988 15.368l0.009 0.317 0.003 0.315v45.45c0 8.731-6.994 15.83-15.685 15.997l-0.315 0.003H843.739c-8.731 0-15.83-6.994-15.997-15.685l-0.003-0.315V581c0-8.731 6.994-15.83 15.685-15.997l0.315-0.003h54.237z m0 16h-54.237v225.735h142.107v-45.45h-87.87V581z m-675.387 0h-57.57l67.872 146.046v79.689h53.934v-79.689L355 581h-56.661l-18.786 50.298-1.002 2.67c-5.684 15.121-11.15 29.396-16.834 45.012l-0.95 2.616h-1.212l-11.153-30.76a5635.59 5635.59 0 0 1-5.005-13.89l-2.022-5.648L222.589 581z m413.898 0h-58.479v225.735h48.48V729.47l-0.004-1.17c-0.122-19.317-3.218-46.4-5.787-67.431l-1.178-9.573h1.212l18.18 53.934 30.603 82.416h29.694l30.3-82.416 18.786-53.934h1.515l-0.476 3.502c-2.925 21.647-6.657 52.266-6.792 73.502l-0.004 1.17v77.265h49.389V581h-58.782l-34.542 97.566-0.702 2.182c-3.7 11.65-6.991 24.172-10.925 36.303l-0.796 2.42h-1.515l-0.702-2.278c-3.715-12.175-7.017-24.749-10.972-36.445l-0.749-2.182L636.487 581z m-152.106 0h-64.842l-69.993 225.735h55.146l13.029-51.813h66.66l13.029 51.813h56.964L484.381 581z m-33.027 40.602c6.06 23.028 11.817 49.995 17.877 72.417l4.848 19.089h-46.056l4.848-19.089c5.757-22.422 11.817-48.783 17.271-72.417h1.212z m-0.352 65.958l-0.938 3.76c-0.23 0.912-0.456 1.813-0.682 2.703l-0.786 3.084h4.896l-0.66-2.478c-0.394-1.49-0.785-2.991-1.184-4.54l-0.646-2.529z" fill="#AD2B38" p-id="14324"></path></svg>