<?xml version="1.0" standalone="no"?><!DOCTYPE svg PUBLIC "-//W3C//DTD SVG 1.1//EN" "http://www.w3.org/Graphics/SVG/1.1/DTD/svg11.dtd"><svg t="1737347883169" class="icon" viewBox="0 0 1024 1024" version="1.1" xmlns="http://www.w3.org/2000/svg" p-id="18947" xmlns:xlink="http://www.w3.org/1999/xlink" width="200" height="200"><path d="M254.976 768c0 26.624 18.432 41.984 41.984 41.984h41.984v148.48c0 33.792 29.696 64.512 64.512 64.512 33.792 0 64.512-29.696 64.512-64.512V811.008h86.016v148.48c0 33.792 29.696 64.512 64.512 64.512 33.792 0 64.512-29.696 64.512-64.512V811.008h41.984c26.624 0 41.984-18.432 41.984-41.984V342.016h-512V768zM147.456 342.016c-33.792 0-64.512 29.696-64.512 64.512V706.56c0 33.792 29.696 64.512 64.512 64.512s64.512-29.696 64.512-64.512V406.528c0-34.816-29.696-64.512-64.512-64.512z m729.088 0c-33.792 0-64.512 29.696-64.512 64.512V706.56c0 33.792 29.696 64.512 64.512 64.512 33.792 0 64.512-29.696 64.512-64.512V406.528c-1.024-34.816-30.72-64.512-64.512-64.512zM660.48 92.16L716.8 35.84c8.192-8.192 8.192-22.528 0-29.696s-22.528-8.192-29.696 0l-64.512 64.512c-29.696-20.48-68.608-28.672-110.592-28.672s-80.896 8.192-114.688 26.624L336.896 4.096c-8.192-4.096-26.624-4.096-33.792 0-4.096 8.192-4.096 26.624 0 33.792l56.32 56.32c-60.416 46.08-102.4 120.832-102.4 204.8h513.024c-1.024-86.016-45.056-161.792-109.568-206.848zM425.984 212.992h-41.984v-41.984h41.984v41.984z m215.04 0h-41.984v-41.984h41.984v41.984z" fill="#A4CA39" p-id="18948"></path></svg>