<?xml version="1.0" standalone="no"?><!DOCTYPE svg PUBLIC "-//W3C//DTD SVG 1.1//EN" "http://www.w3.org/Graphics/SVG/1.1/DTD/svg11.dtd"><svg t="1737347579543" class="icon" viewBox="0 0 1024 1024" version="1.1" xmlns="http://www.w3.org/2000/svg" p-id="11001" xmlns:xlink="http://www.w3.org/1999/xlink" width="200" height="200"><path d="M690.688 0c5.632 0 9.2672 1.024 13.312 3.1232 3.584 1.536 6.656 3.584 10.752 6.656 5.632 4.608 14.3872 11.264 24.5248 19.968 17.92 15.36 41.9328 36.864 71.168 62.8736a43.9296 43.9296 0 0 0 5.1712 4.608c22.016 20.0192 44.544 40.9088 67.584 61.9008l22.016 20.48c4.096 4.096 6.656 6.656 8.192 7.68 6.3488 6.0928 8.96 14.6944 7.5776 22.8352v251.7504H1024v434.7392h-102.912V1024H229.8368a127.8976 127.8976 0 0 1-127.8976-127.3856H0V461.8752h101.888V1.4848h486.3488c14.336 0 25.6 11.264 25.6 25.6 0 14.4384-11.264 25.6512-25.6 25.6512h-435.2v408.7808H153.6v0.512h716.288V256.3072h-204.8V26.112c0-14.336 11.264-25.6 25.7024-26.112z m179.1488 896.6144h-716.8c0.256 42.24 34.4576 76.288 76.7488 76.288h640v-76.288zM287.3856 545.024H206.3872c-20.992 1.0752-32 11.5712-33.0752 31.3856v237.824c1.0752 19.8144 12.1344 30.2592 33.0752 31.3856h87.6032c62.8736-2.2016 95.3856-33.0752 97.5872-92.5184-3.328-38.5024-24.832-62.208-64.512-71.0144v-1.6384c26.4704-11.008 39.68-31.3856 39.68-61.1328-3.2768-46.2336-29.7472-71.0144-79.36-74.2912z m205.824-3.328c-19.8656 1.1264-30.3616 12.1344-31.4368 33.024v241.152c1.0752 19.8144 11.5712 29.696 31.3856 29.696 19.8656 0 30.3104-9.8816 31.4368-29.696v-241.152c-1.1264-20.8896-11.5712-31.8976-31.4368-33.024z m338.0224 0c-19.8144 1.1264-30.3104 12.1344-31.4368 33.024v160.256h-1.6384l-133.9392-178.3808a36.2496 36.2496 0 0 0-26.4704-14.848c-19.8144 1.024-30.3104 12.0832-31.3856 32.9728v241.152c1.0752 19.8144 11.5712 29.696 31.3856 29.696 19.8656 0 30.3616-9.8816 31.4368-29.696v-158.5664h1.6384l133.9392 176.7424c6.656 7.68 15.4624 11.5712 26.4704 11.5712 19.8656 0 30.3104-9.9328 31.4368-29.7472v-241.152c-1.1264-20.8896-11.5712-31.8976-31.4368-33.024zM280.7808 720.0768c28.672 0 43.52 11.008 44.6464 33.024-1.1264 23.1424-14.336 35.2256-39.68 36.352h-49.664v-69.376h44.6976z m-11.5712-118.8864c22.016 1.0752 33.6384 11.008 34.7136 29.696-1.0752 20.9408-12.6976 31.9488-34.7136 33.024h-33.0752v-62.72h33.0752zM716.3904 77.824v128.256h142.1824a273.6128 273.6128 0 0 0-10.6496-9.728c-22.528-20.992-45.568-41.8816-67.072-61.44-2.56-2.4576-2.56-2.4576-5.12-4.608-23.4496-20.8384-43.3152-38.6048-59.392-52.48z" fill="#666666" p-id="11002"></path></svg>