<?xml version="1.0" standalone="no"?><!DOCTYPE svg PUBLIC "-//W3C//DTD SVG 1.1//EN" "http://www.w3.org/Graphics/SVG/1.1/DTD/svg11.dtd"><svg t="1736898044487" class="icon" viewBox="0 0 1670 1024" version="1.1" xmlns="http://www.w3.org/2000/svg" p-id="103852" width="417.5" height="256" xmlns:xlink="http://www.w3.org/1999/xlink"><path d="M1499.136 102.4q34.816 0 66.048 13.312t54.272 36.352 36.352 54.272 13.312 67.072l0 490.496q0 35.84-13.312 66.56t-36.352 54.272-54.272 36.864-66.048 13.312l-1328.128 0q-35.84 0-66.56-13.312t-54.272-36.864-36.864-54.272-13.312-66.56l0-490.496q0-35.84 13.312-67.072t36.864-54.272 54.272-36.352 66.56-13.312l1328.128 0zM518.144 706.56q48.128-37.888 66.56-110.592l-66.56-20.48q-12.288 56.32-42.496 75.264t-79.36 18.944q-4.096 0-25.088-2.048t-45.056-16.384-43.52-46.592-19.456-93.696q0-7.168 4.608-31.232t18.944-50.176 41.472-46.592 73.216-20.48q44.032 0 65.536 17.92t38.912 55.808l71.68-21.504q-18.432-62.464-63.488-95.232-45.056-33.792-111.616-33.792-57.344 0-107.52 26.624-50.176 28.672-75.776 78.848-26.624 51.2-26.624 120.832 0 62.464 23.552 118.784 22.528 53.248 68.608 83.968 43.008 29.696 116.736 29.696 69.632 0 116.736-37.888zM880.64 481.28q-57.344-16.384-81.408-30.208t-24.064-37.376q0-27.648 24.064-43.008t78.336-15.36q25.6 0 40.96 4.096t25.6 12.288 16.896 20.992 13.824 30.208l56.32-5.12q0-3.072-3.072-24.576t-18.432-45.056-47.104-43.008-88.064-19.456q-59.392 0-93.184 14.336t-50.688 34.304-21.504 40.448-4.608 32.768q0 36.864 20.48 61.44t47.104 39.936 52.224 22.528 36.864 10.24q32.768 10.24 53.248 20.48t31.232 19.968 14.336 18.432 3.584 15.872l0 23.552q0 11.264-7.168 19.456t-24.576 13.312-52.224 5.12q-41.984 0-65.024-8.704t-33.792-20.992-12.288-27.136-1.536-27.136l-65.536 0q0 20.48 3.072 46.592t20.992 49.152 56.32 38.912 109.056 15.872q19.456 0 44.032-3.072t45.056-15.872 34.816-39.424 14.336-74.752q0-10.24-2.56-26.112t-16.896-34.304-44.032-36.864-84.992-32.768zM1330.176 481.28q-35.84-8.192-55.808-15.36t-30.208-14.848-12.8-16.384-2.56-20.992q0-27.648 22.016-41.984t76.288-14.336q25.6 0 39.424 3.584t21.504 11.776 12.288 20.48 12.8 29.696l67.584-5.12q0-3.072-3.072-24.576t-18.432-45.056-47.104-43.008-88.064-19.456q-58.368 0-92.672 14.336t-51.2 34.304-21.504 40.448-4.608 32.768q0 36.864 20.48 63.488t47.104 43.52 52.224 25.6 36.864 11.776q37.888 10.24 57.856 18.944t28.16 16.384 8.704 14.848 0.512 14.336q0 12.288-2.048 22.016t-10.24 16.896-23.552 10.752-40.96 3.584q-41.984 0-63.488-10.752t-30.72-24.064-9.728-25.6-0.512-15.36l-73.728 0q0 5.12 3.584 29.184t21.504 51.2 55.808 48.64 108.544 21.504q19.456 0 44.032-5.632t45.056-20.48 34.816-40.448 14.336-66.56q0-10.24-0.512-26.624t-13.312-34.816-43.52-36.352-91.136-32.256z" p-id="103853"></path></svg>