<?xml version="1.0" standalone="no"?><!DOCTYPE svg PUBLIC "-//W3C//DTD SVG 1.1//EN" "http://www.w3.org/Graphics/SVG/1.1/DTD/svg11.dtd"><svg t="1736895411004" class="icon" viewBox="0 0 1024 1024" version="1.1" xmlns="http://www.w3.org/2000/svg" p-id="15166" xmlns:xlink="http://www.w3.org/1999/xlink" width="256" height="256"><path d="M707.2 79.9H238.6c-11.6 0-21 9.4-21 21V923c0 11.6 9.4 21 21 21h704.9V316.3L707.2 79.9" fill="#FFFFFF" p-id="15167"></path><path d="M943.6 960h-705c-20.4 0-37-16.6-37-37V100.9c0-20.4 16.6-37 37-37h468.6c4.2 0 8.3 1.7 11.3 4.7L954.9 305c3 3 4.7 7.1 4.7 11.3V944c0 8.9-7.2 16-16 16z m-705-864.1c-2.7 0-5 2.2-5 5V923c0 2.7 2.2 5 5 5h689V323l-227-227h-462z" fill="#00365B" p-id="15168"></path><path d="M943.6 316.3H707.2V79.9z" fill="#FFFFFF" p-id="15169"></path><path d="M943.6 332.3H707.2c-8.8 0-16-7.2-16-16V79.9c0-6.5 3.9-12.3 9.9-14.8s12.9-1.1 17.4 3.5L954.9 305c4.6 4.6 5.9 11.5 3.5 17.4-2.5 6-8.3 9.9-14.8 9.9z m-220.4-32H905L723.2 118.6v181.7z" fill="#00365B" p-id="15170"></path><path d="M104.7 414.2h698.8c22.4 0 40.6 19.8 40.6 44.3v301.4c0 24.5-18.2 44.3-40.6 44.3H104.7c-22.4 0-40.6-19.8-40.6-44.3V458.5c-0.1-24.5 18.1-44.3 40.6-44.3z" fill="#34A89F" p-id="15171"></path><path d="M266.1 742.5c13 0 24.7-1.8 35.1-5.3 10.4-3.5 19.2-7.7 26.5-12.6 7.3-4.9 12.9-9.9 16.9-15 4-5.1 6.3-9.2 6.8-12.2 0.5-4.3-0.3-8.4-2.3-12.4-2-4-5.9-7.1-11.6-9.4-6-2.8-12.1-1.9-18.4 2.6-3.3 2.5-6.5 4.9-9.8 7.3-3.3 2.4-6.9 4.6-10.9 6.6s-8.6 3.7-13.9 5.1c-5.3 1.4-11.4 2.2-18.4 2.4-13.5 0.3-25.4-2.3-35.6-7.7s-18.8-12.6-25.7-21.6c-6.9-9-12.1-19.3-15.6-31-3.5-11.6-5.3-23.6-5.3-35.8s1.6-24.1 4.7-35.5c3.1-11.4 7.8-21.5 13.9-30.2 6.1-8.8 13.8-15.8 22.9-21.2 9.1-5.4 19.6-8.1 31.3-8.1 10.5 0 19.3 1.6 26.5 4.7 7.1 3.1 13.3 6.4 18.6 9.8 5.3 3.4 10 6.2 14.3 8.4 4.3 2.3 8.6 2.4 13.1 0.4 2.8-1 5.1-2.4 7.1-4.1 2-1.8 3.4-3.3 4.1-4.5 0.5-1 1.2-2.6 2.1-4.9s1.1-5 0.6-8.3c-0.5-3.8-2.9-8.2-7.1-13.3-4.3-5.1-10.1-10-17.6-14.6-7.5-4.6-16.4-8.5-26.6-11.6-10.3-3.1-21.5-4.7-33.8-4.7-17.3 0-33.3 3.1-48.2 9.4-14.9 6.3-27.8 15.3-38.6 27s-19.5 26.1-25.9 43.2c-6.4 17-9.7 36.4-9.9 58.2-0.3 21.8 2.9 41.2 9.4 58.3 6.5 17.1 15.6 31.7 27.4 43.7 11.8 12 25.7 21.1 41.8 27.4 15.9 6.4 33.3 9.5 52.1 9.5z m157-5.8c9.9 3.1 20.4 4.4 31.7 3.9 30.8-1 53.7-9.1 68.7-24.2s22.8-35.1 23.3-59.8c0.3-9.3-0.8-17.5-3.2-24.8-2.4-7.3-6.3-13.8-11.6-19.5-5.4-5.8-12.2-11.1-20.4-16.1-8.3-5-18-10-29.3-15-4.5-2-9.6-4.1-15.2-6.4s-11-5-16.1-8.3c-5.1-3.3-9.4-7-12.9-11.3s-5.3-9.3-5.3-15c0-3.5 0.8-7.1 2.3-10.7 1.5-3.6 3.6-6.9 6.2-9.8 2.6-2.9 5.8-5.3 9.6-7.1 3.8-1.9 8-2.8 12.8-2.8 4.3 0 8.4 0.6 12.6 1.9 4.1 1.3 8 2.8 11.6 4.5 3.6 1.8 7.1 3.7 10.3 5.8 3.3 2.1 6.1 4.1 8.6 5.8 1.8 1.5 4 2.5 6.8 3s5.6 0.4 8.4-0.2 5.6-1.8 8.3-3.4c2.6-1.6 4.8-3.8 6.6-6.6 3.3-5.5 3.7-11.3 1.3-17.4-2.4-6.1-6.9-11.8-13.5-17.1-6.6-5.3-14.9-9.6-25-13.1-10-3.5-20.9-5.4-32.6-5.6-10.5-0.3-20.8 1.1-31 4.1-10.1 3-19.2 7.5-27.2 13.5s-14.4 13.6-19.3 22.7-7.3 19.7-7.3 31.7c0 11.3 2 21 6 29.3s9.4 15.4 16.1 21.4c6.8 6 14.7 11.2 23.8 15.6 9.1 4.4 18.9 8.4 29.5 12.2 3.8 1.3 7.9 3 12.6 5.3 4.6 2.3 8.9 5.1 12.8 8.4 3.9 3.4 7.2 7.3 9.9 11.8 2.8 4.5 4.1 9.8 4.1 15.8 0 6.3-1.1 11.8-3.4 16.7-2.3 4.9-5.3 8.9-9 12.2-3.8 3.3-8.1 5.8-12.9 7.5-4.9 1.8-9.8 2.6-14.8 2.6-6 0-11.6-0.8-16.7-2.3-5.1-1.5-10-3.4-14.6-5.8s-9-5-13.1-7.9c-4.1-2.9-8.1-5.6-11.8-8.1-4.3-2.8-8.8-3.8-13.7-3.2-4.9 0.6-9.1 3.7-12.6 9.2-2 2.8-3.1 6.1-3.2 10.1-0.1 4 0.7 8.1 2.4 12.4 1.8 4.3 4.6 8.4 8.4 12.6 3.9 4.1 9.1 7.8 15.6 11.1 7 3.9 15.6 7.3 25.4 10.4z m252 2.1c8.5 0 15.4-5.6 20.6-16.9l78.8-224.8c5-14.8 0.9-23.5-12.4-26.3-2.8-0.5-5.7-0.8-8.8-0.9-3.1-0.1-6.1 0.3-9 1.3-2.9 1-5.6 2.6-8.1 4.9-2.5 2.3-4.5 5.4-6 9.4L675 648.3l-55.2-162.5c-1.5-4.8-3.4-8.3-5.8-10.5-2.4-2.3-4.9-3.8-7.7-4.5-2.8-0.8-5.5-1-8.3-0.8-2.8 0.3-5.4 0.6-7.9 1.1-4.3 1-7.6 2.5-9.9 4.5-2.4 2-4.1 4.2-5.1 6.6-1 2.4-1.4 4.9-1.1 7.7 0.3 2.8 0.9 5.5 1.9 8.3l78 222.5c3.3 7.5 6.5 12.4 9.8 14.6 3.4 2.4 7.1 3.5 11.4 3.5z" fill="#FFFFFF" p-id="15172"></path></svg>