<?xml version="1.0" standalone="no"?><!DOCTYPE svg PUBLIC "-//W3C//DTD SVG 1.1//EN" "http://www.w3.org/Graphics/SVG/1.1/DTD/svg11.dtd"><svg t="1736895791916" class="icon" viewBox="0 0 1024 1024" version="1.1" xmlns="http://www.w3.org/2000/svg" p-id="25932" xmlns:xlink="http://www.w3.org/1999/xlink" width="256" height="256"><path d="M950.272 843.776H527.36c-16.384 0-29.696-13.312-29.696-29.696V210.944c0-16.384 13.312-29.696 29.696-29.696h422.912c16.384 0 29.696 13.312 29.696 29.696v603.136c0 16.384-13.312 29.696-29.696 29.696z" fill="#E8E8E8" p-id="25933"></path><path d="M829.44 361.472H527.36c-16.384 0-29.696-13.312-29.696-29.696s13.312-29.696 29.696-29.696H829.44c16.384 0 29.696 13.312 29.696 29.696 0 15.36-13.312 29.696-29.696 29.696z m0 120.832H527.36c-16.384 0-29.696-13.312-29.696-29.696s13.312-29.696 29.696-29.696H829.44c16.384 0 29.696 13.312 29.696 29.696s-13.312 29.696-29.696 29.696z m0 119.808H527.36c-16.384 0-29.696-13.312-29.696-29.696s13.312-29.696 29.696-29.696H829.44c16.384 0 29.696 13.312 29.696 29.696s-13.312 29.696-29.696 29.696z m0 120.832H527.36c-16.384 0-29.696-13.312-29.696-29.696s13.312-29.696 29.696-29.696H829.44c16.384 0 29.696 13.312 29.696 29.696s-13.312 29.696-29.696 29.696z" fill="#B2B2B2" p-id="25934"></path><path d="M607.232 995.328l-563.2-107.52V135.168l563.2-107.52v967.68z" fill="#0D47A1" p-id="25935"></path><path d="M447.488 696.32h-71.68l-47.104-236.544c-3.072-13.312-4.096-27.648-4.096-40.96h-1.024c-1.024 16.384-3.072 30.72-5.12 40.96L269.312 696.32H194.56l-74.752-368.64h70.656l39.936 245.76c2.048 10.24 3.072 24.576 4.096 41.984h1.024c0-13.312 3.072-27.648 6.144-43.008l51.2-244.736h68.608l47.104 247.808c2.048 9.216 3.072 22.528 4.096 39.936h1.024c1.024-13.312 2.048-26.624 4.096-40.96l39.936-245.76H522.24L447.488 696.32z" fill="#FFFFFF" p-id="25936"></path></svg>