<?xml version="1.0" standalone="no"?><!DOCTYPE svg PUBLIC "-//W3C//DTD SVG 1.1//EN" "http://www.w3.org/Graphics/SVG/1.1/DTD/svg11.dtd"><svg t="1736895331086" class="icon" viewBox="0 0 1024 1024" version="1.1" xmlns="http://www.w3.org/2000/svg" p-id="6139" width="256" height="256" xmlns:xlink="http://www.w3.org/1999/xlink"><path d="M20.07545719 278.98311111h983.84908562v-103.56306133a12.94538311 12.94538311 0 0 0-12.94538191-12.94538311H33.0208391a12.94538311 12.94538311 0 0 0-12.94538191 12.94538311v103.56306133z m12.94538191 582.54222222h957.9583218a12.94538311 12.94538311 0 0 0 12.94538191-12.94538311V304.87387614H20.07545719v543.70607408a12.94538311 12.94538311 0 0 0 12.94538191 12.94538311z" fill="#FFFFFF" p-id="6140"></path><path d="M78.32967941 220.72888889m-19.41807407 0a19.41807408 19.41807408 0 1 0 38.83614815 0 19.41807408 19.41807408 0 1 0-38.83614815 0Z" fill="#C8C6C4" p-id="6141"></path><path d="M143.05659259 220.72888889m-19.41807407 0a19.41807408 19.41807408 0 1 0 38.83614815 0 19.41807408 19.41807408 0 1 0-38.83614815 0Z" fill="#C8C6C4" p-id="6142"></path><path d="M207.78350577 220.72888889m-19.41807408 0a19.41807408 19.41807408 0 1 0 38.83614815 0 19.41807408 19.41807408 0 1 0-38.83614815 0Z" fill="#C8C6C4" p-id="6143"></path><path d="M278.98311111 861.52533333H33.0208391a12.94538311 12.94538311 0 0 1-12.94538191-12.94538311V304.87387614h258.90765392v556.65145719z" fill="#EDEBE9" p-id="6144"></path><path d="M201.31081482 499.05461689h-103.56306133a12.94538311 12.94538311 0 1 1 0-25.89076504h103.56306133a12.94538311 12.94538311 0 1 1 0 25.89076504z m0-77.6722963h-103.56306133a12.94538311 12.94538311 0 1 1 0-25.89076504h103.56306133a12.94538311 12.94538311 0 1 1 0 25.89076504z m0 155.34459258h-103.56306133a12.94538311 12.94538311 0 1 1 0-25.89076502h103.56306133a12.94538311 12.94538311 0 1 1 0 25.89076502z m388.36148148-77.67229628H369.60079053a12.94538311 12.94538311 0 1 1 0-25.89076504h220.07150577a12.94538311 12.94538311 0 1 1 0 25.89076504z m0-77.6722963H369.60079053a12.94538311 12.94538311 0 1 1 0-25.89076504h220.07150577a12.94538311 12.94538311 0 1 1 0 25.89076504z m0 155.34459258H369.60079053a12.94538311 12.94538311 0 1 1 0-25.89076502h220.07150577a12.94538311 12.94538311 0 1 1 0 25.89076502z m0 77.6722963H369.60079053a12.94538311 12.94538311 0 1 1 0-25.89076502h220.07150577a12.94538311 12.94538311 0 1 1 0 25.89076502z m0 77.6722963H369.60079053a12.94538311 12.94538311 0 1 1 0-25.89076502h220.07150577a12.94538311 12.94538311 0 1 1 0 25.89076502z" fill="#C8C6C4" p-id="6145"></path><path d="M913.30686461 732.07150577H693.23535762a25.89076502 25.89076502 0 0 1-25.89076503-25.89076502V421.38232059a25.89076502 25.89076502 0 0 1 25.89076503-25.89076504h220.07150699a25.89076502 25.89076502 0 0 1 25.89076502 25.89076504v284.79842016a25.89076502 25.89076502 0 0 1-25.89076502 25.89076502z" fill="#69AFE5" p-id="6146"></path><path d="M990.9791609 136.58390164H33.0208391c-21.41166341 0-38.83614815 17.42448473-38.83614815 38.83614814v673.15990044c0 21.41166341 17.42448473 38.83614815 38.83614815 38.83614814h957.9583218c21.41166341 0 38.83614815-17.42448473 38.83614815-38.83614814V175.42004978c0-21.41166341-17.42448473-38.83614815-38.83614815-38.83614814z m-957.9583218 25.89076503h957.9583218a12.94538311 12.94538311 0 0 1 12.94538191 12.94538311v103.56306133H20.07545719v-103.56306133a12.94538311 12.94538311 0 0 1 12.94538191-12.94538311z m957.9583218 699.05066666H33.0208391a12.94538311 12.94538311 0 0 1-12.94538191-12.94538311V304.87387614h983.84908562v543.70607408a12.94538311 12.94538311 0 0 1-12.94538191 12.94538311z" fill="#605E5C" p-id="6147"></path></svg>