<?xml version="1.0" standalone="no"?><!DOCTYPE svg PUBLIC "-//W3C//DTD SVG 1.1//EN" "http://www.w3.org/Graphics/SVG/1.1/DTD/svg11.dtd"><svg t="1737348479209" class="icon" viewBox="0 0 1024 1024" version="1.1" xmlns="http://www.w3.org/2000/svg" p-id="34813" xmlns:xlink="http://www.w3.org/1999/xlink" width="200" height="200"><path d="M941.952 470.784L550.4 79.424a57.6 57.6 0 0 0-81.664 0l-81.28 81.28 103.296 103.104a68.544 68.544 0 0 1 86.848 87.36l99.328 99.392a68.608 68.608 0 1 1-41.152 38.72L543.168 396.8v243.84a68.544 68.544 0 1 1-56.768-2.24V392.32a68.736 68.736 0 0 1-37.312-90.048L347.776 200.64 79.424 468.928a57.6 57.6 0 0 0 0 81.664l391.36 391.36a57.6 57.6 0 0 0 81.664 0l389.504-389.504a57.6 57.6 0 0 0 0-81.664z" fill="#808080" p-id="34814"></path></svg>