<?xml version="1.0" standalone="no"?><!DOCTYPE svg PUBLIC "-//W3C//DTD SVG 1.1//EN" "http://www.w3.org/Graphics/SVG/1.1/DTD/svg11.dtd"><svg t="1736897015040" class="icon" viewBox="0 0 1024 1024" version="1.1" xmlns="http://www.w3.org/2000/svg" p-id="62468" xmlns:xlink="http://www.w3.org/1999/xlink" width="256" height="256"><path d="M758.336 905.194667l-67.882667-67.882667-45.248 45.248 67.882667 67.882667a32 32 0 1 0 45.248-45.248z m64-384l-67.882667-67.882667-45.248 45.248 67.882667 67.882667a32 32 0 1 0 45.248-45.248z m-551.765333 384l67.882666-67.882667 45.248 45.248-67.882666 67.882667a32 32 0 1 1-45.248-45.248z m-69.333334-384l67.882667-67.882667 45.248 45.248-67.882667 67.882667a32 32 0 1 1-45.248-45.248z" fill="#FFCC80" p-id="62469"></path><path d="M810.666667 170.666667c0-41.237333-24.512-64-68.928-64S661.333333 161.429333 661.333333 202.666667c0 21.333333 41.024 32 64 32 44.416 0 85.333333-22.762667 85.333334-64zM213.333333 170.666667c0-41.237333 24.512-64 68.928-64S362.666667 161.429333 362.666667 202.666667c0 21.333333-41.024 32-64 32-44.416 0-85.333333-22.762667-85.333334-64z" fill="#4DD0E1" p-id="62470"></path><path d="M746.666667 149.333333a21.333333 21.333333 0 1 0 0 42.666667 21.333333 21.333333 0 1 0 0-42.666667zM277.333333 149.333333a21.333333 21.333333 0 1 0 0 42.666667 21.333333 21.333333 0 1 0 0-42.666667z" fill="#424242" p-id="62471"></path><path d="M789.333333 725.333333c0 101.845333-68.672 213.333333-283.946666 213.333334C332.117333 938.666667 234.666667 827.178667 234.666667 725.333333c0-106.666667 21.333333-123.861333 21.333333-213.333333V298.666667c0-101.845333 65.621333-234.666667 249.386667-234.666667S768 149.141333 768 277.333333c0 64-5.056 116.330667 0 213.333334 3.968 75.989333 21.333333 170.666667 21.333333 234.666666z" fill="#4DD0E1" p-id="62472"></path><path d="M618.666667 128a85.333333 85.333333 0 1 0 0 170.666667 85.333333 85.333333 0 1 0 0-170.666667zM405.333333 128a85.333333 85.333333 0 1 0 0 170.666667 85.333333 85.333333 0 1 0 0-170.666667z" fill="#F5F5F5" p-id="62473"></path><path d="M512 426.666667a21.333333 21.333333 0 0 0 42.666667 0v-64h-42.666667v64z m-42.666667 0a21.333333 21.333333 0 0 0 42.666667 0v-64h-42.666667v64z" fill="#EEEEEE" p-id="62474"></path><path d="M565.333333 384c-8.789333 0-13.930667-1.813333-21.568-4.373333a99.925333 99.925333 0 0 0-63.914666 0.042666c-7.573333 2.538667-12.437333 4.330667-21.184 4.330667-28.458667 0-32-21.333333-32-32 0-32 32-53.333333 64-53.333333h42.666666c32 0 64 21.333333 64 53.333333 0 10.666667-3.541333 32-32 32z" fill="#FFCC80" p-id="62475"></path><path d="M576 192a21.333333 21.333333 0 1 0 0 42.666667 21.333333 21.333333 0 1 0 0-42.666667zM362.666667 192a21.333333 21.333333 0 1 0 0 42.666667 21.333333 21.333333 0 1 0 0-42.666667z m149.333333 85.333333a42.666667 21.333333 0 1 0 0 42.666667 42.666667 21.333333 0 1 0 0-42.666667z" fill="#424242" p-id="62476"></path></svg>