<?xml version="1.0" standalone="no"?><!DOCTYPE svg PUBLIC "-//W3C//DTD SVG 1.1//EN" "http://www.w3.org/Graphics/SVG/1.1/DTD/svg11.dtd"><svg t="1736897849576" class="icon" viewBox="0 0 1024 1024" version="1.1" xmlns="http://www.w3.org/2000/svg" p-id="91398" xmlns:xlink="http://www.w3.org/1999/xlink" width="256" height="256"><path d="M42.666667 149.482667A106.752 106.752 0 0 1 149.482667 42.666667h725.034666A106.752 106.752 0 0 1 981.333333 149.482667v725.034666A106.752 106.752 0 0 1 874.517333 981.333333H149.482667A106.752 106.752 0 0 1 42.666667 874.517333V149.482667z m85.333333 0v725.034666C128 886.421333 137.578667 896 149.482667 896h725.034666c11.904 0 21.482667-9.578667 21.482667-21.482667V149.482667C896 137.578667 886.421333 128 874.517333 128H149.482667C137.578667 128 128 137.578667 128 149.482667z m243.498667 264.682666L273.664 512l97.834667 97.834667a42.666667 42.666667 0 0 1-60.330667 60.330666l-128-128a42.666667 42.666667 0 0 1 0-60.330666l128-128a42.666667 42.666667 0 0 1 60.330667 60.330666z m281.002666 195.669334L750.336 512l-97.834667-97.834667a42.666667 42.666667 0 0 1 60.330667-60.330666l128 128a42.666667 42.666667 0 0 1 0 60.330666l-128 128a42.666667 42.666667 0 0 1-60.330667-60.330666z m-115.712-263.978667a42.666667 42.666667 0 0 1 78.421334 33.621333l-128 298.666667a42.666667 42.666667 0 0 1-78.421334-33.621333l128-298.666667z" fill="" p-id="91399"></path></svg>