<?xml version="1.0" standalone="no"?><!DOCTYPE svg PUBLIC "-//W3C//DTD SVG 1.1//EN" "http://www.w3.org/Graphics/SVG/1.1/DTD/svg11.dtd"><svg t="1736898276504" class="icon" viewBox="0 0 1024 1024" version="1.1" xmlns="http://www.w3.org/2000/svg" p-id="7314" xmlns:xlink="http://www.w3.org/1999/xlink" width="256" height="256"><path d="M676.297143 0H145.609143C130.834286 0 118.857143 11.977143 118.857143 35.218286V1005.714286c0 6.308571 11.977143 18.285714 26.752 18.285714h732.781714c14.774857 0 26.752-11.977143 26.752-18.285714V237.312c0-12.726857-1.700571-16.822857-4.699428-19.84L687.670857 4.699429A16.164571 16.164571 0 0 0 676.297143 0" fill="#E9E9E0" p-id="7315"></path><path d="M685.714286 2.761143V219.428571h216.667428L685.714286 2.761143" fill="#D9D7CA" p-id="7316"></path><path d="M878.390857 1024H145.609143A26.752 26.752 0 0 1 118.857143 997.248V713.142857h786.285714v284.105143c0 14.774857-11.977143 26.752-26.752 26.752" fill="#71C285" p-id="7317"></path><path d="M343.497143 784.896h30.500571V969.142857h-30.500571V784.896zM524.251429 918.637714c0 6.674286-1.371429 13.129143-4.132572 19.382857-2.742857 6.253714-6.619429 11.739429-11.611428 16.493715-5.010286 4.754286-11.190857 8.539429-18.505143 11.373714a69.028571 69.028571 0 0 1-24.996572 4.260571c-4.004571 0-8.137143-0.219429-12.379428-0.621714a100.516571 100.516571 0 0 1-12.873143-2.139428 67.364571 67.364571 0 0 1-12.379429-4.114286 39.68 39.68 0 0 1-10.130285-6.381714l5.266285-21.504c2.304 1.334857 5.284571 2.633143 8.868572 3.876571 3.584 1.261714 7.277714 2.413714 11.117714 3.510857 3.821714 1.078857 7.661714 1.956571 11.501714 2.614857 3.821714 0.658286 7.405714 1.005714 10.752 1.005715 10.166857 0 17.974857-2.377143 23.369143-7.131429 5.412571-4.754286 8.137143-11.776 8.137143-21.12 0-5.668571-1.938286-10.496-5.76-14.500571a61.860571 61.860571 0 0 0-14.372571-10.88 360.576 360.576 0 0 0-18.614858-9.746286 113.042286 113.042286 0 0 1-18.761142-11.501714 59.684571 59.684571 0 0 1-14.500572-15.616c-3.84-5.997714-5.741714-13.513143-5.741714-22.509715 0-8.155429 1.499429-15.414857 4.498286-21.741714a48.457143 48.457143 0 0 1 12.123428-16.128c5.083429-4.406857 11.008-7.789714 17.755429-10.130286a64.768 64.768 0 0 1 21.376-3.492571c7.661714 0 15.396571 0.713143 23.241143 2.121143 7.826286 1.408 14.153143 3.712 18.998857 6.875428-0.987429 2.157714-2.176 4.534857-3.492572 7.131429l-3.748571 7.241143-2.998857 5.632a22.985143 22.985143 0 0 1-1.499429 2.486857 28.635429 28.635429 0 0 1-3.382857-1.993143 25.417143 25.417143 0 0 0-5.376-2.505143 37.741714 37.741714 0 0 0-9.252571-1.737143 88.886857 88.886857 0 0 0-14.738286 0.237715 25.746286 25.746286 0 0 0-9.508572 2.889142 32.438857 32.438857 0 0 0-8.009142 5.869715 26.88 26.88 0 0 0-5.485715 7.862857 19.931429 19.931429 0 0 0-2.011428 8.374857c0 6.674286 1.92 12.050286 5.76 16.128 3.821714 4.096 8.576 7.661714 14.244571 10.752 5.668571 3.090286 11.830857 6.089143 18.505143 8.996571 6.656 2.925714 12.873143 6.473143 18.614857 10.642286 5.76 4.150857 10.550857 9.362286 14.390857 15.616 3.803429 6.253714 5.741714 14.281143 5.741715 24.118857M705.243429 876.141714c0 15.506286-1.956571 29.165714-5.869715 40.996572-3.913143 11.849143-9.344 21.668571-16.237714 29.494857a67.858286 67.858286 0 0 1-24.265143 17.755428 75.611429 75.611429 0 0 1-30.372571 5.997715 75.666286 75.666286 0 0 1-30.372572-5.997715 67.803429 67.803429 0 0 1-24.246857-17.755428c-6.912-7.826286-12.342857-17.645714-16.256-29.494857-3.913143-11.830857-5.869714-25.490286-5.869714-40.996572 0-15.506286 1.956571-29.129143 5.869714-40.868571 3.913143-11.757714 9.344-21.540571 16.256-29.385143 6.912-7.826286 14.994286-13.787429 24.246857-17.865143a74.203429 74.203429 0 0 1 30.372572-6.125714c11.008 0 21.12 2.029714 30.372571 6.125714 9.252571 4.077714 17.353143 10.038857 24.265143 17.865143 6.893714 7.844571 12.324571 17.627429 16.237714 29.385143 3.913143 11.739429 5.869714 25.362286 5.869715 40.868571z m-77.494858 69.76c6.162286 0 12.032-1.225143 17.627429-3.638857 5.595429-2.413714 10.587429-6.363429 14.994286-11.867428 4.406857-5.504 7.881143-12.708571 10.386285-21.632 2.486857-8.905143 3.821714-19.785143 3.986286-32.621715-0.164571-12.489143-1.462857-23.131429-3.876571-31.872-2.395429-8.758857-5.741714-15.963429-9.984-21.632a38.692571 38.692571 0 0 0-14.500572-12.251428 40.612571 40.612571 0 0 0-17.133714-3.748572c-6.180571 0-12.032 1.170286-17.627429 3.510857a37.723429 37.723429 0 0 0-14.994285 11.867429c-4.406857 5.595429-7.881143 12.781714-10.368 21.632-2.505143 8.832-3.84 19.657143-4.004572 32.493714 0.164571 12.507429 1.462857 23.168 3.876572 32 2.413714 8.850286 5.741714 16.036571 10.002285 21.632 4.242286 5.577143 9.088 9.654857 14.500572 12.251429 5.394286 2.578286 11.117714 3.876571 17.115428 3.876571z" fill="#FFFFFF" p-id="7318"></path><path d="M658.011429 228.845714c85.705143 85.686857 85.705143 224.621714 0 310.308572-85.686857 85.705143-224.621714 85.705143-310.308572 0-85.705143-85.686857-85.705143-224.621714 0-310.308572 85.686857-85.705143 224.621714-85.705143 310.308572 0" fill="#C8BDB8" p-id="7319"></path><path d="M541.641143 345.216a54.820571 54.820571 0 0 1 0 77.568 54.820571 54.820571 0 0 1-77.568 0 54.820571 54.820571 0 0 1 0-77.568 54.820571 54.820571 0 0 1 77.568 0" fill="#E9E9E0" p-id="7320"></path><path d="M464.073143 345.216c2.413714-2.413714 5.046857-4.48 7.753143-6.345143l-43.172572-161.152a217.819429 217.819429 0 0 0-80.950857 51.126857 217.819429 217.819429 0 0 0-51.126857 80.950857l161.152 43.172572c1.865143-2.706286 3.913143-5.339429 6.345143-7.753143M549.869714 429.458286l41.563429 155.117714a218.020571 218.020571 0 0 0 66.578286-45.421714 218.276571 218.276571 0 0 0 50.157714-78.171429l-149.705143-40.118857a7.003429 7.003429 0 0 0-8.594286 8.594286" fill="#D3CCC9" p-id="7321"></path></svg>