<?xml version="1.0" standalone="no"?><!DOCTYPE svg PUBLIC "-//W3C//DTD SVG 1.1//EN" "http://www.w3.org/Graphics/SVG/1.1/DTD/svg11.dtd"><svg t="1736897297576" class="icon" viewBox="0 0 1024 1024" version="1.1" xmlns="http://www.w3.org/2000/svg" p-id="74003" xmlns:xlink="http://www.w3.org/1999/xlink" width="256" height="256"><path d="M683.477733 625.791725c19.599741-13.399823 46.799381-24.999669 46.799381-24.999669s-77.398977 13.999815-154.397959 20.39973c-94.198754 7.799897-195.397416 9.399876-246.196744 2.599966-120.198411-15.999788 65.999127-60.199204 65.999127-60.199204s-72.199045-4.799937-161.197868 37.999497c-104.998612 50.799328 259.996562 73.999022 448.994063 24.19968z m-170.797742-64.199151c-37.999498-85.398871-166.197802-160.397879 0-291.596144C719.99725 106.398593 613.678656 0 613.678656 0c42.999431 168.997765-151.198001 220.197088-221.397073 325.1957-47.799368 71.799051 23.399691 148.798032 120.398408 236.396874z m229.196969-352.39534c0.199997 0-350.395367 87.598842-182.99758 280.396292 49.399347 56.799249-12.999828 107.998572-12.999828 107.998572s125.398342-64.799143 67.799104-145.798072c-53.799289-75.599-94.998744-113.198503 128.198304-242.596792z m-12.199838 540.992846a24.379678 24.379678 0 0 1-3.999947 5.199932c256.596607-67.399109 162.197855-237.796856 39.599476-194.597427a34.659542 34.659542 0 0 0-16.399783 12.599833 140.898137 140.898137 0 0 1 21.999709-5.99992c61.99918-12.999828 150.998003 82.998903-41.199455 182.797582zM823.995875 874.788433s28.999617 23.799685-31.79958 42.399439c-115.798469 34.999537-481.593632 45.599397-583.192289 1.399982-36.599516-15.799791 31.999577-37.999498 53.599292-42.599437 22.399704-4.799937 35.399532-3.999947 35.399532-3.999947-40.599463-28.599622-262.596528 56.199257-112.798509 80.398937C593.67892 1018.786529 929.994473 922.587801 823.995875 874.788433zM376.881787 791.989528c-157.397919 43.999418 95.798733 134.798218 296.196083 48.999352a371.775084 371.775084 0 0 1-56.399254-27.599635c-89.398818 16.999775-130.79827 18.199759-211.997197 8.999881-66.999114-7.5999-27.799632-30.399598-27.799632-30.399598z m359.595245 194.397429c-157.397919 29.599609-351.595351 26.199654-466.593831 7.199905 0-0.199997 23.599688 19.399743 144.798086 27.19964 184.397562 11.799844 467.593817-6.599913 474.19373-93.798759 0 0-12.799831 32.999564-152.397985 59.399214zM649.278185 705.990665c-118.398434 22.799699-186.997527 22.199706-273.596383 13.199825-66.999114-6.999907-23.199693-39.399479-23.199693-39.399479-173.597705 57.599238 96.398725 122.798376 338.995518 51.799315a120.738404 120.738404 0 0 1-42.199442-25.599661z" p-id="74004"></path></svg>