<?xml version="1.0" standalone="no"?><!DOCTYPE svg PUBLIC "-//W3C//DTD SVG 1.1//EN" "http://www.w3.org/Graphics/SVG/1.1/DTD/svg11.dtd"><svg t="1736896308373" class="icon" viewBox="0 0 1192 1024" version="1.1" xmlns="http://www.w3.org/2000/svg" p-id="44105" xmlns:xlink="http://www.w3.org/1999/xlink" width="298" height="256"><path d="M1096.089 0H95.929A95.929 95.929 0 0 0 0 95.929v832.142a95.929 95.929 0 0 0 95.929 93.658h1000.16a95.929 95.929 0 0 0 95.929-93.658V95.929A95.929 95.929 0 0 0 1096.088 0zM938.856 517.676a47.68 47.68 0 0 0-56.763 0L674.91 657.313 380.31 290.058a47.68 47.68 0 0 0-70.385 0L95.929 507.459V95.929h1000.16v487.024z" fill="#5E5C5C" p-id="44106"></path><path d="M843.494 194.129a134.528 134.528 0 1 0 134.528 134.527A134.528 134.528 0 0 0 843.494 194.13z m0 170.288a38.599 38.599 0 1 1 38.6-38.599 38.599 38.599 0 0 1-38.6 40.87z" fill="#5E5C5C" p-id="44107"></path></svg>