<?xml version="1.0" standalone="no"?><!DOCTYPE svg PUBLIC "-//W3C//DTD SVG 1.1//EN" "http://www.w3.org/Graphics/SVG/1.1/DTD/svg11.dtd"><svg t="1736897978728" class="icon" viewBox="0 0 1024 1024" version="1.1" xmlns="http://www.w3.org/2000/svg" p-id="99164" xmlns:xlink="http://www.w3.org/1999/xlink" width="256" height="256"><path d="M238.592 155.648H399.36v450.56C399.36 809.984 302.08 880.64 146.432 880.64c-37.888 0-87.04-6.144-118.784-17.408l18.432-130.048c22.528 7.168 51.2 12.288 82.944 12.288 67.584 0 110.592-30.72 110.592-141.312V155.648h-1.024z m301.056 547.84c41.984 22.528 110.592 44.032 179.2 44.032 73.728 0 113.664-30.72 113.664-78.848 0-43.008-33.792-69.632-119.808-99.328-118.784-40.96-197.632-107.52-197.632-211.968C515.072 235.52 617.472 143.36 785.408 143.36c81.92 0 139.264 16.384 182.272 35.84L931.84 308.224c-27.648-13.312-79.872-33.792-148.48-33.792-69.632 0-103.424 32.768-103.424 68.608 0 45.056 38.912 65.536 132.096 101.376 125.952 46.08 184.32 112.64 184.32 214.016 0 119.808-91.136 221.184-286.72 221.184-81.92 0-161.792-22.528-201.728-44.032l31.744-132.096z" fill="#F4DE51" p-id="99165"></path></svg>