<?xml version="1.0" standalone="no"?><!DOCTYPE svg PUBLIC "-//W3C//DTD SVG 1.1//EN" "http://www.w3.org/Graphics/SVG/1.1/DTD/svg11.dtd"><svg t="1736898340875" class="icon" viewBox="0 0 1024 1024" version="1.1" xmlns="http://www.w3.org/2000/svg" p-id="10190" xmlns:xlink="http://www.w3.org/1999/xlink" width="256" height="256"><path d="M513.83388 1022.379362c20.428566-0.170593 40.64389-1.236803 60.816566-4.008946a503.421282 503.421282 0 0 0 134.171751-36.805538 529.0103 529.0103 0 0 0 161.765243-108.454788 510.842097 510.842097 0 0 0 104.062006-146.155941 503.037446 503.037446 0 0 0 43.501331-148.245711c6.354606-49.472102 5.757529-100.053061-1.919176-149.226624a510.074426 510.074426 0 0 0-33.820153-118.903637 477.533725 477.533725 0 0 0-36.421702-68.962404c-49.813288-78.345044-122.016968-141.336676-205.138628-183.430611a547.391744 547.391744 0 0 0-92.632245-37.061428h-0.213242c5.075155 2.686847 10.235607 5.629584 14.713685 8.572321 5.117804 3.155979 10.192959 6.226661 14.969576 9.595882a380.849885 380.849885 0 0 1 66.488798 56.722324c45.33521 48.832376 76.639109 108.66803 94.59407 172.342036 12.112135 41.880693 18.50939 85.21143 21.11094 128.670112 1.876528 31.687734 1.876528 63.58871-2.004473 95.063203-6.354606 54.163422-23.627193 107.047392-52.37219 153.363514a318.796516 318.796516 0 0 1-81.159836 88.87919c-53.054564 39.577681-122.699342 63.204875-189.18814 47.510277a167.010991 167.010991 0 0 1-31.900975-11.003278 200.106121 200.106121 0 0 1-33.223076-19.149115 259.30205 259.30205 0 0 1-53.054564-47.16909 277.512901 277.512901 0 0 1-44.738133-74.506691 314.190493 314.190493 0 0 1-21.068291-108.326843c-1.279451-54.291367 9.595882-108.881272 36.421702-156.519494a274.271625 274.271625 0 0 1 70.924228-81.799561c9.595882-7.591409 19.788841-14.201905 30.024448-20.428566l0.682374-0.298539a218.402269 218.402269 0 0 0-61.456292-5.117803 211.621179 211.621179 0 0 0-52.37219 10.192959c-15.310762 5.117804-30.024448 11.557706-43.458682 19.191763a262.116842 262.116842 0 0 0-31.261251 21.11094c-8.998805 7.676705-17.912313 15.310762-26.228743 23.669842-47.894112 49.173563-75.402307 114.382911-86.234991 181.511434-6.397255 41.496858-6.397255 83.633441-3.881001 125.855321 4.478078 59.451819 16.67551 118.81834 40.302703 173.195004a363.321408 363.321408 0 0 0 57.489994 92.674893 347.157678 347.157678 0 0 0 133.574674 95.148499 338.372115 338.372115 0 0 0 90.115992 23.030116c3.155979 0.639725 6.354606 0.639725 8.913508 0.639726l-0.895615-1.364748z m-125.130299-16.974048a174.900938 174.900938 0 0 1-19.191763-9.723827 362.511089 362.511089 0 0 1-86.917365-65.42259c-46.65731-48.533838-77.91856-109.478349-95.830872-174.047971a647.658047 647.658047 0 0 1-21.11094-135.280609 517.836429 517.836429 0 0 1 1.961824-88.793892c5.757529-53.608993 21.11094-106.663557 47.936761-152.681141A293.804576 293.804576 0 0 1 291.593258 291.898194a265.699304 265.699304 0 0 1 69.644777-38.383527 228.723173 228.723173 0 0 1 150.207536-1.919177c1.236803 0 1.236803 0 1.919177 1.279451 0.639725 0.639725 1.919176 0.639725 2.558901 1.279451 1.919176 0.682374 4.43543 1.919176 7.03698 3.155979 10.192959 5.117804 20.428566 11.557706 30.024448 17.912313a268.428799 268.428799 0 0 1 89.433618 106.706205c17.912313 38.980604 26.228743 82.481935 26.911118 125.300892 0.597077 46.017584-7.676705 91.99252-27.508195 134.171751a273.845141 273.845141 0 0 1-112.506382 120.780165c3.838353 1.279451 7.676705 1.919176 11.557706 3.198627 9.595882 1.876528 19.149115 3.155979 29.342074 3.155979 62.607797 1.919176 123.339067-28.105271 168.034552-70.241854 8.316431-7.676705 15.993136-15.993136 23.030116-24.949293 9.595882-11.515058 18.552038-22.987468 26.186095-35.099603 10.192959-15.993136 18.552038-31.986273 26.186095-49.216211a345.963524 345.963524 0 0 0 21.708017-70.966877c8.359079-42.818957 8.998805-86.234991 6.354607-129.053948-5.757529-86.234991-28.702349-172.51263-78.558286-244.119232a386.180931 386.180931 0 0 0-23.669842-30.664173 420.85405 420.85405 0 0 0-45.33521-44.098408 361.530177 361.530177 0 0 0-58.129719-39.023253 423.370304 423.370304 0 0 0-72.161031-25.503721l-12.794509-2.558902c-8.913508-1.279451-17.912313-1.876528-27.039063-2.558901a360.506616 360.506616 0 0 0-43.288088 0.682373c-30.024448 1.919176-60.219489 6.823738-90.073344 14.372499-143.127908 36.933483-268.343503 136.688005-335.002894 269.025876A504.743381 504.743381 0 0 0 10.36995 418.137349a503.71982 503.71982 0 0 0-4.43543 160.997572c5.117804 43.501331 15.950488 86.277639 33.180427 126.964178 9.681178 24.309567 21.793314 47.93676 35.184899 70.284503 46.65731 76.042032 114.425559 138.010104 192.344119 180.829061 29.342074 16.67551 60.048896 29.427371 91.99252 40.302703 9.63853 3.155979 19.191764 6.354606 29.384723 8.913508l0.682373-1.02356z" p-id="10191"></path></svg>