<?xml version="1.0" standalone="no"?><!DOCTYPE svg PUBLIC "-//W3C//DTD SVG 1.1//EN" "http://www.w3.org/Graphics/SVG/1.1/DTD/svg11.dtd"><svg t="1736897070766" class="icon" viewBox="0 0 1024 1024" version="1.1" xmlns="http://www.w3.org/2000/svg" p-id="63579" xmlns:xlink="http://www.w3.org/1999/xlink" width="256" height="256"><path d="M254.976 462.336L0 556.032l197.12 139.264 157.184-155.648-99.328-77.312z" fill="#4DB6AC" p-id="63580"></path><path d="M694.784 42.496c-21.504 3.072-15.36 1.536-46.08 26.112-29.184 23.552-113.664 162.816-158.72 209.92-39.936 41.984-55.808 19.968-97.792 54.784-41.472 34.816-105.984 104.448-105.984 104.448l103.936 76.8 164.864-226.304c38.912-53.248 38.4-60.416 59.904-116.736 10.24-27.648 28.672-48.64 45.056-74.24 19.968-32.256 48.64-56.832 34.816-54.784z" fill="#00897B" p-id="63581"></path><path d="M691.712 39.936c-50.688-0.512-100.864 222.72-187.904 394.24-88.576 174.592-263.168 286.72-263.168 286.72 29.696 13.312 56.32 8.192 88.064 37.888 21.504 26.112 84.48 155.648 121.856 237.056 0 0 30.72-16.896 69.632-45.056 38.912-28.16 86.016-68.096 119.296-114.176 43.52-61.44 77.824-99.328 106.496-122.368 28.672-23.04 52.736-31.232 75.264-33.28 81.408-7.168 202.24 139.264 202.24 139.264S771.072 40.448 691.712 39.936z" fill="#FFB74D" p-id="63582"></path></svg>