<?xml version="1.0" standalone="no"?><!DOCTYPE svg PUBLIC "-//W3C//DTD SVG 1.1//EN" "http://www.w3.org/Graphics/SVG/1.1/DTD/svg11.dtd"><svg t="1736898668945" class="icon" viewBox="0 0 1280 1024" version="1.1" xmlns="http://www.w3.org/2000/svg" p-id="28799" xmlns:xlink="http://www.w3.org/1999/xlink" width="320" height="256"><path d="M1187.7 905.84H92.3C41.4 905.84 0 864.44 0 813.54V210.46c0-50.9 41.4-92.3 92.3-92.3h1095.38c50.9 0 92.3 41.4 92.3 92.3v603.08c0.02 50.9-41.38 92.3-92.28 92.3z m-880-184.6v-240l123.08 153.84 123.08-153.84v240h123.08V302.76h-123.08l-123.08 153.84-123.08-153.84H184.62v418.46h123.08zM1132.3 512h-123.08V302.76h-123.08V512h-123.08l184.62 215.38L1132.3 512z" fill="" p-id="28800"></path></svg>