<?xml version="1.0" standalone="no"?><!DOCTYPE svg PUBLIC "-//W3C//DTD SVG 1.1//EN" "http://www.w3.org/Graphics/SVG/1.1/DTD/svg11.dtd"><svg t="1737347997070" class="icon" viewBox="0 0 1024 1024" version="1.1" xmlns="http://www.w3.org/2000/svg" p-id="21033" xmlns:xlink="http://www.w3.org/1999/xlink" width="200" height="200"><path d="M923.136 969.557333H193.024v-909.653333h521.386667l208.725333 207.701333z" fill="#7CCDFF" p-id="21034"></path><path d="M912.896 253.952l2.56 671.914667c0 15.530667-12.458667 27.989333-27.989333 27.989333H237.909333c-15.530667 0-27.989333-12.458667-27.989333-27.989333V96.938667c0-15.530667 12.458667-27.989333 27.989333-27.989334l493.397334-1.024-38.912-39.936H239.274667c-36.352 0-65.706667 29.354667-65.706667 65.706667v835.584c0 36.352 29.354667 65.706667 65.706667 65.706667h646.826666c36.352 0 65.706667-29.354667 65.706667-65.706667V293.888l-38.912-39.936z" fill="#4191FB" p-id="21035"></path><path d="M692.394667 222.72c0 39.424 31.914667 71.338667 71.338666 71.338667h188.245334L692.394667 27.989333v194.730667z" fill="#C7E2FF" p-id="21036"></path><path d="M557.568 482.304H158.72c-50.346667 0-91.136-40.789333-91.136-91.136v-60.245333c0-50.346667 40.789333-91.136 91.136-91.136h398.848c50.346667 0 91.136 40.789333 91.136 91.136v60.245333c0 50.346667-40.789333 91.136-91.136 91.136z" fill="#4191FB" p-id="21037"></path><path d="M126.464 287.573333H206.506667c17.408 0 30.549333 4.096 39.082666 12.458667 8.704 8.362667 12.970667 20.138667 12.970667 35.328 0 15.701333-4.778667 27.989333-14.165333 36.864-9.386667 8.874667-23.893333 13.312-43.349334 13.312h-26.282666v57.856H126.464v-155.818667z m48.298667 66.389334h11.776c9.216 0 15.872-1.536 19.626666-4.778667 3.754667-3.242667 5.632-7.338667 5.632-12.458667 0-4.949333-1.706667-9.045333-4.949333-12.458666s-9.386667-5.12-18.432-5.12h-13.653333v34.816zM283.989333 287.573333h48.128V346.453333l50.346667-58.88h64l-56.832 58.709334 59.392 96.938666h-59.221333l-32.768-64-24.917334 26.112v38.058667h-48.128v-155.818667zM535.893333 386.901333v-32.426666h74.410667v66.389333c-14.165333 9.728-26.794667 16.384-37.717333 19.797333-10.922667 3.584-23.893333 5.290667-38.912 5.290667-18.432 0-33.621333-3.072-45.226667-9.386667-11.605333-6.314667-20.650667-15.701333-27.136-28.16s-9.557333-26.794667-9.557333-42.837333c0-17.066667 3.584-31.744 10.581333-44.373333s17.237333-22.186667 30.890667-28.672c10.581333-4.949333 24.746667-7.509333 42.666666-7.509334 17.237333 0 30.037333 1.536 38.570667 4.608s15.701333 8.021333 21.162667 14.506667c5.632 6.485333 9.898667 14.848 12.629333 24.917333l-46.421333 8.362667c-1.877333-5.802667-5.12-10.410667-9.728-13.482667-4.608-3.072-10.410667-4.608-17.408-4.608-10.581333 0-18.944 3.584-25.258667 10.922667s-9.386667 18.944-9.386667 34.816c0 16.896 3.242667 28.842667 9.557334 36.181333 6.314667 7.168 15.189333 10.752 26.453333 10.752 5.461333 0 10.581333-0.853333 15.36-2.389333 4.949333-1.536 10.410667-4.266667 16.725333-8.021333v-14.677334H535.893333z" fill="#FFFFFF" p-id="21038"></path><path d="M391.338667 716.288c0-30.208 0.170667-60.245333-0.170667-90.453333-0.170667-8.533333 2.389333-13.824 10.752-17.408 49.322667-20.992 98.474667-42.496 147.626667-63.829334 5.802667-2.56 10.922667-2.56 16.896-0.170666 50.858667 21.504 101.888 43.008 152.917333 64.170666 7.850667 3.242667 10.581333 7.850667 10.410667 16.213334-0.170667 60.757333-0.341333 121.514667 0 182.272 0 8.874667-3.242667 13.482667-11.264 17.066666-49.322667 21.845333-98.645333 44.032-147.626667 66.730667-9.386667 4.266667-17.237333 3.584-26.112-0.512-47.445333-22.186667-94.890667-44.373333-142.506667-66.048-8.021333-3.754667-10.922667-8.704-10.922666-17.408 0.170667-30.208 0-60.416 0-90.624z m153.770666-67.925333c-10.069333 7.338667-19.285333 9.557333-27.136 14.165333-10.069333 5.973333-19.285333 5.12-29.525333 0.341333-15.530667-7.168-31.744-13.141333-47.616-19.626666-12.970667-5.12-13.653333-4.778667-13.653333 8.533333-0.170667 44.373333 0.170667 88.746667-0.170667 133.12 0 8.704 2.730667 13.824 10.752 17.578667 29.354667 13.312 58.368 27.306667 87.552 40.96 13.653333 6.314667 14.506667 5.632 14.506667-9.557334 0-45.226667 0.341333-90.453333-0.170667-135.68-0.170667-11.946667 3.925333-18.602667 14.848-22.698666 10.922667-4.096 21.504-9.216 32.256-13.994667 26.112-11.776 52.394667-23.722667 81.408-36.864-26.282667-11.434667-50.688-20.309333-73.386667-32.426667-22.357333-11.946667-42.325333-13.482667-64.512-0.170666-12.117333 7.168-26.282667 11.093333-39.082666 16.896-5.461333 2.56-12.117333 3.072-17.408 10.069333 23.552 9.728 46.421333 19.114667 71.338666 29.354667z m30.72 127.317333c0 20.48 0.341333 40.96-0.170666 61.610667-0.170667 10.069333 3.413333 11.776 11.946666 7.509333 18.773333-9.045333 37.888-17.92 56.832-26.794667 13.994667-6.656 28.16-12.970667 41.984-19.968 6.485333-3.242667 10.752-18.090667 6.314667-24.234666-4.949333-7.338667-10.410667-0.341333-15.189333 1.365333-9.898667 3.413333-19.114667 8.362667-28.842667 12.458667-2.901333 1.194667-6.144 3.413333-8.362667-1.365334-5.802667-12.629333 1.536-32.597333 14.336-38.570666 10.581333-4.949333 21.162667-9.898667 31.914667-14.848 6.656-3.072 8.704-8.704 5.973333-14.506667-3.072-6.485333-8.021333-0.853333-11.605333 0.682667-10.410667 4.437333-20.309333 9.728-30.72 14.336-2.901333 1.365333-6.826667 4.437333-9.728-0.853334-5.802667-11.264 1.194667-32.768 12.629333-38.229333 10.922667-5.290667 22.016-10.24 32.938667-15.530667 10.752-5.12 9.045333-15.701333 6.144-23.04-3.242667-7.850667-10.069333-0.341333-14.506667 1.536-30.549333 13.653333-60.757333 28.16-91.306666 41.984-8.021333 3.584-11.093333 8.704-10.922667 17.408 0.682667 19.626667 0.341333 39.253333 0.341333 59.050667z" fill="#4191FB" p-id="21039"></path></svg>