<?xml version="1.0" standalone="no"?><!DOCTYPE svg PUBLIC "-//W3C//DTD SVG 1.1//EN" "http://www.w3.org/Graphics/SVG/1.1/DTD/svg11.dtd"><svg t="1736894391008" class="icon" viewBox="0 0 1024 1024" version="1.1" xmlns="http://www.w3.org/2000/svg" p-id="6797" xmlns:xlink="http://www.w3.org/1999/xlink" width="200" height="200"><path d="M332.796922 686.083126m-332.796922 0a332.796922 332.796922 0 1 0 665.593843 0 332.796922 332.796922 0 1 0-665.593843 0Z" fill="#D3EFDE" p-id="6798"></path><path d="M883.19183 1024h-639.99408A141.054695 141.054695 0 0 1 102.399053 883.201302v-742.393132A141.054695 141.054695 0 0 1 243.19775 0.009472h516.347224a88.319183 88.319183 0 0 1 63.487413 25.599763l189.694245 189.694245A38.399645 38.399645 0 0 1 1023.990528 243.207222v639.99408a141.054695 141.054695 0 0 1-140.798698 140.798698zM243.19775 76.808762A63.999408 63.999408 0 0 0 179.198342 140.80817v742.393132A63.999408 63.999408 0 0 0 243.19775 947.20071h639.99408a63.999408 63.999408 0 0 0 63.999408-63.999408V259.079076l-179.198342-179.198343a13.055879 13.055879 0 0 0-8.447922-3.071971z" fill="#434260" p-id="6799"></path><path d="M383.996448 595.971959l20.735808-25.599763a87.295193 87.295193 0 0 0 60.159444 25.599763c27.391747 0 42.751605-12.799882 42.751604-31.743706s-15.359858-27.135749-36.351663-36.351664l-31.231712-13.567874a65.023399 65.023399 0 0 1-46.079573-59.135453 67.07138 67.07138 0 0 1 74.239313-62.463423 97.023103 97.023103 0 0 1 69.375358 30.719716l-18.687827 22.78379a72.44733 72.44733 0 0 0-49.919538-20.223813c-23.039787 0-37.88765 11.007898-37.88765 28.927732s17.919834 26.879751 36.351664 34.303683l30.975714 13.055879A62.975417 62.975417 0 0 1 543.482973 563.204262c0 36.095666-29.951723 65.791391-79.359266 65.791392A112.126963 112.126963 0 0 1 383.996448 595.971959zM574.714684 399.10978h35.839668v92.159148h96.511108v-92.159148H742.393133v226.045909h-35.327673v-102.399052h-96.511108v102.399052h-35.839668z" fill="#434260" p-id="6800"></path></svg>