<?xml version="1.0" standalone="no"?><!DOCTYPE svg PUBLIC "-//W3C//DTD SVG 1.1//EN" "http://www.w3.org/Graphics/SVG/1.1/DTD/svg11.dtd"><svg t="1736897746856" class="icon" viewBox="0 0 1024 1024" version="1.1" xmlns="http://www.w3.org/2000/svg" p-id="90367" xmlns:xlink="http://www.w3.org/1999/xlink" width="256" height="256"><path d="M590.222222 73.955556L859.022222 342.254933V876.088889c0 37.700267-30.5664 68.266667-68.266666 68.266667H233.244444c-37.700267 0-68.266667-30.5664-68.266666-68.266667V142.222222c0-37.700267 30.5664-68.266667 68.266666-68.266666h356.977778z m-11.764622 28.444444H233.244444a39.822222 39.822222 0 0 0-39.799466 38.456889L193.422222 142.222222v733.866667a39.822222 39.822222 0 0 0 38.456889 39.799467L233.244444 915.911111h557.511112a39.822222 39.822222 0 0 0 39.799466-38.456889L830.577778 876.088889V354.053689L578.4576 102.4z" fill="#426C8D" p-id="90368"></path><path d="M854.755556 370.648178h-215.1424c-45.528178 0-82.551467-36.431644-83.5072-81.737956l-0.017067-1.792V73.955556h28.444444v213.162666c0 29.895111 23.819378 54.232178 53.515378 55.062756l1.564445 0.022755h215.1424v28.444445z" fill="#426C8D" p-id="90369"></path><path d="M56.888889 506.311111m28.444444 0l853.333334 0q28.444444 0 28.444444 28.444445l0 284.444444q0 28.444444-28.444444 28.444444l-853.333334 0q-28.444444 0-28.444444-28.444444l0-284.444444q0-28.444444 28.444444-28.444445Z" fill="#426C8D" p-id="90370"></path><path d="M332.384711 765.895111c46.08 0 72.704-27.904 72.704-59.648 0-26.88-14.074311-42.752-37.626311-52.224l-23.813689-9.472c-16.896-6.656-28.672-10.752-28.672-21.504 0-9.984 8.453689-15.616 22.528-15.616 14.848 0 26.624 5.12 39.173689 14.592l22.784-28.672c-16.645689-16.64-39.936-25.088-61.952-25.088-40.448 0-69.12 25.6-69.12 57.6 0 27.648 18.688 44.288 38.656 52.224l24.32 10.24c16.384 6.912 26.88 10.496 26.88 21.504 0 10.24-7.936 16.64-24.832 16.64-15.104 0-32.768-7.936-46.08-19.456l-26.112 31.488c19.706311 18.176 46.330311 27.392 71.168 27.392zM469.600711 762.311111h55.04l57.093689-190.72h-46.592l-21.504 87.04c-5.381689 20.48-9.216 39.936-14.848 60.928h-1.285689c-5.376-20.992-9.216-40.448-14.848-60.928l-21.76-87.04h-48.384L469.600711 762.311111zM687.200711 765.895111c26.624 0 50.176-10.496 63.488-23.296v-89.088h-70.912v37.376h30.208v30.72c-4.096 3.072-11.264 4.864-17.92 4.864-35.584 0-52.48-22.016-52.48-59.904 0-37.12 20.224-59.136 48.384-59.136 15.872 0 25.856 6.4 35.328 14.848l24.064-29.184c-13.056-13.056-33.024-24.832-60.928-24.832-50.944 0-93.696 36.352-93.696 99.84 0 64.512 41.728 97.792 94.464 97.792z" fill="#FFFFFF" p-id="90371"></path></svg>