<svg xmlns="http://www.w3.org/2000/svg"  viewBox="0 0 48 48" width="240px" height="240px"><linearGradient id="4hbmiDiZ3pw9QOb9HV5r0a" x1="24" x2="24" y1="447.551" y2="484.298" gradientTransform="translate(0 -442.001)" gradientUnits="userSpaceOnUse"><stop offset="0" stop-color="#f1f1f1"/><stop offset="1" stop-color="#bebebe"/></linearGradient><circle cx="24" cy="24" r="20" fill="url(#4hbmiDiZ3pw9QOb9HV5r0a)"/><linearGradient id="4hbmiDiZ3pw9QOb9HV5r0b" x1="24" x2="24" y1="450.682" y2="482.861" gradientTransform="translate(0 -442.001)" gradientUnits="userSpaceOnUse"><stop offset="0" stop-color="#b2c5cc"/><stop offset="1" stop-color="#4a676a"/></linearGradient><circle cx="24" cy="24" r="18" fill="url(#4hbmiDiZ3pw9QOb9HV5r0b)"/><path d="M38.684,26.622h-1.045l-2.771-4.166l1.675-2.454	c0.097-0.162,0.234-0.344,0.931-0.342h0.559c0.552,0,1-0.449,1-1V17.25c0-0.551-0.448-1-1-1h-4.691	c-0.221,0-0.425,0.072-0.591,0.194c-0.166-0.122-0.37-0.194-0.591-0.194h-5.266c-0.552,0-1,0.449-1,1v1.411c0,0.551,0.448,1,1.001,1	l1.037-0.003c0.011-0.001,0.021-0.002,0.031-0.002l0.271,0.411c-0.131-0.063-0.277-0.098-0.432-0.098h-6.556l-0.202-2.66	c-0.022-0.293-0.178-0.562-0.427-0.738c-0.066-0.047-0.139-0.086-0.204-0.11c-0.122-0.051-0.251-0.076-0.383-0.076H9.5	c-0.52,0-0.958,0.406-0.997,0.924l-0.335,4.404c-0.021,0.277,0.075,0.553,0.264,0.757c0.189,0.203,0.456,0.32,0.733,0.32h1.245	c0.507,0,0.934-0.379,0.993-0.884l0.197-1.767c0-0.001,0.002-0.132,0.086-0.22c0.104-0.109,0.35-0.174,0.67-0.177h0.292v6.834	l-1.358,0.059c-0.536,0.024-0.956,0.463-0.956,1v1.368c0,0.552,0.449,1,1,1h6.894c0.132,0,0.257-0.025,0.373-0.072v0.252h-0.58	c-0.551,0-1,0.448-1,1v1.379c0,0.552,0.449,1,1,1h8.728c0.057,0.011,0.116,0.016,0.177,0.016h1.053c0.493,0,0.908-0.354,0.986-0.84	l0.439-2.702h1.926c0.552,0,1-0.448,1-1v-1.411c0-0.339-0.17-0.64-0.429-0.82l0.403-0.59l0.449,0.677	c-0.197,0.183-0.321,0.443-0.321,0.733v1.411c0,0.552,0.448,1,1,1h5.251c0.552,0,1-0.448,1-1v-1.411	C39.684,27.071,39.235,26.622,38.684,26.622z M35.199,18.475c-0.004-0.01-0.009-0.021-0.014-0.03	c-0.032-0.069-0.069-0.134-0.112-0.195h0.374C35.359,18.319,35.276,18.394,35.199,18.475z M23.152,24.835h-0.253v-1.6l0.587,0.001	c-0.207,0.184-0.337,0.451-0.337,0.749L23.152,24.835z M24.396,26.523c0.037-0.025,0.073-0.053,0.108-0.081v0.164	C24.469,26.576,24.433,26.548,24.396,26.523z M23.303,27.716L23.303,27.716L23.303,27.716	C23.303,27.716,23.303,27.716,23.303,27.716z M22.899,30.181V28.21l0.249-0.002c0,0.021,0.001,0.044,0.001,0.069v0.787	c0,0.552,0.449,1,1,1h1.356c0.039,0,0.078-0.002,0.116-0.007c-0.162,0.066-0.389,0.113-0.706,0.113L22.899,30.181z M29.22,24.729	l-0.417-3.761c0-0.015,0-0.03-0.001-0.044l1.48,2.236L29.22,24.729z M29.595,28.034h-0.401c0.095-0.076,0.186-0.159,0.274-0.249	c0.004,0.01,0.008,0.019,0.012,0.028C29.511,27.891,29.55,27.964,29.595,28.034z M27.585,26.622h-0.946	c-0.045,0-0.09,0.003-0.134,0.009v-0.408c0.145,0.079,0.31,0.124,0.484,0.124h1.092C27.873,26.576,27.753,26.601,27.585,26.622z M27.147,31.451l-0.02,0.124H27.08c-0.025-0.005-0.05-0.008-0.075-0.011C27.054,31.529,27.102,31.492,27.147,31.451z M16.947,19.741	h0.236c0.327,0.003,0.574,0.067,0.679,0.177c0.017,0.017,0.03,0.037,0.041,0.057c-0.496,0.059-0.881,0.482-0.881,0.993v1.267	c0,0.551,0.449,1,1,1h0.58v3.469c-0.103-0.041-0.214-0.065-0.331-0.071l-1.324-0.056V19.741z" opacity=".05"/><path d="M27.979,33.075h-1.053c-0.042,0-0.084-0.005-0.124-0.016h-8.78	c-0.276,0-0.5-0.224-0.5-0.5v-1.379c0-0.276,0.224-0.5,0.5-0.5h1.08v-7.946h-1.08c-0.276,0-0.5-0.224-0.5-0.5v-1.267	c0-0.276,0.224-0.5,0.5-0.5h0.457l-0.028-0.232c-0.002-0.099,0.007-0.418-0.227-0.664c-0.206-0.216-0.555-0.328-1.036-0.332h-0.74	v7.816l1.803,0.076c0.268,0.012,0.479,0.232,0.479,0.5v1.368c0,0.276-0.224,0.5-0.5,0.5h-6.894c-0.276,0-0.5-0.224-0.5-0.5v-1.368	c0-0.268,0.211-0.488,0.478-0.5l1.836-0.08v-7.813h-0.792c-0.477,0.004-0.826,0.116-1.032,0.332	c-0.234,0.245-0.225,0.564-0.224,0.578l-0.194,1.697c-0.03,0.251-0.243,0.441-0.497,0.441H9.165c-0.139,0-0.272-0.058-0.367-0.16	s-0.143-0.239-0.132-0.378l0.335-4.404c0.02-0.261,0.237-0.462,0.499-0.462h10.532c0.068,0,0.133,0.014,0.192,0.038	c0.037,0.014,0.072,0.033,0.104,0.056c0.122,0.086,0.207,0.22,0.218,0.368l0.237,3.122h7.019c0.276,0,0.5,0.224,0.5,0.5l0.477,4.324	c0.016,0.142-0.03,0.282-0.125,0.389c-0.095,0.105-0.229,0.166-0.372,0.166h-1.293c-0.244,0-0.452-0.176-0.493-0.417l-0.271-1.612	c-0.019-0.112-0.212-1.067-1.257-1.078l-2.066-0.005l-0.173,0.004c-0.032,0.001-0.061,0-0.091-0.004h-0.238v2.6h0.974	c0.091-0.002,0.165-0.028,0.21-0.08c0.061-0.069,0.085-0.19,0.069-0.343l-0.003-0.928c0-0.276,0.224-0.5,0.5-0.5h1.356	c0.276,0,0.5,0.224,0.5,0.5v5.081c0,0.276-0.224,0.5-0.5,0.5h-1.356c-0.276,0-0.5-0.224-0.5-0.5v-0.787	c0-0.646-0.186-0.534-0.37-0.563h-0.88v2.967h2.419c0.031-0.007,0.063-0.01,0.097-0.01c0.841,0,1.376-0.284,1.592-0.845	c0.039-0.101,0.074-0.199,0.107-0.294c-0.265-0.013-0.476-0.231-0.476-0.499v-1.411c0-0.276,0.224-0.5,0.5-0.5h0.946	c0.525-0.06,0.778-0.248,1.297-1.003l2.002-2.956l-2.627-3.969c-0.096-0.034-0.218-0.047-0.366-0.035l-0.997,0.001	c-0.276,0-0.5-0.224-0.5-0.5V17.25c0-0.276,0.224-0.5,0.5-0.5h5.266c0.276,0,0.5,0.224,0.5,0.5v1.411c0,0.276-0.224,0.5-0.5,0.5	h-0.083l0.752,1.131l0.766-1.131l-0.253,0c-0.276,0-0.5-0.224-0.5-0.5V17.25c0-0.276,0.224-0.5,0.5-0.5h4.691	c0.276,0,0.5,0.224,0.5,0.5v1.411c0,0.276-0.224,0.5-0.5,0.5h-0.559c-0.936-0.004-1.185,0.291-1.36,0.586l-1.848,2.707l3.03,4.557	c0.032,0.046,0.114,0.11,0.22,0.112h1.168c0.276,0,0.5,0.224,0.5,0.5v1.411c0,0.276-0.224,0.5-0.5,0.5h-5.251	c-0.276,0-0.5-0.224-0.5-0.5v-1.411c0-0.276,0.224-0.5,0.5-0.5h0.076l-1.198-1.806l-1.233,1.806h0.253c0.276,0,0.5,0.224,0.5,0.5	v1.411c0,0.276-0.224,0.5-0.5,0.5h-2.351l-0.508,3.122C28.433,32.898,28.224,33.075,27.979,33.075z" opacity=".07"/><linearGradient id="4hbmiDiZ3pw9QOb9HV5r0c" x1="23.924" x2="23.924" y1="33.597" y2="18.271" gradientUnits="userSpaceOnUse"><stop offset=".006" stop-color="#d2d2d2"/><stop offset="1" stop-color="#f1f1f1"/></linearGradient><path fill="url(#4hbmiDiZ3pw9QOb9HV5r0c)" d="M37.513,27.622c-0.286-0.003-0.512-0.162-0.633-0.335l-3.217-4.837l2.021-2.959	c0.352-0.592,0.932-0.841,1.79-0.831h0.559V17.25H33.34v0.172v1.239h0.426c0.449,0.03,0.647,0.203,0.457,0.461l-1.399,2.067	l-1.597-2.401l0.013,0c0.007-0.057,0.118-0.098,0.315-0.128h0.603V17.25h-5.266v0.172v1.239h0.959	c0.299-0.023,0.548,0.025,0.747,0.145l2.886,4.36l-2.191,3.237c-0.534,0.777-0.891,1.13-1.709,1.219h-0.947v0.172v1.239h0.655	c-0.074,0.271-0.178,0.604-0.32,0.973c-0.399,1.037-1.468,1.165-2.058,1.165l0.013,0.009h-3.029v-3.967h0.192h1.265v0.006	c0.517,0,0.793,0.288,0.793,1.057v0.788h0.181h1.175v-1.851v-1.379v-1.851h-1.356v0.875c0.062,0.586-0.264,0.967-0.777,0.976h-1.473	v-3.6h0.826l-0.018,0.005c0,0,0.055-0.002,0.194-0.005h1.566c0.158,0.001,0.32,0.003,0.506,0.005	c1.516,0.016,1.745,1.495,1.745,1.495l0.271,1.612h1.293l-0.479-4.36v-0.019h-5.904h-1.578l-0.273-3.584l-0.016,0.004v-0.004H9.5	l-0.335,4.404h1.245l0.192-1.612c0,0-0.096-1.42,1.755-1.436h1.293v8.793h-0.032l-2.282,0.1v1.368h6.894v-1.368l-2.282-0.096v-8.796	h1.245c1.851,0.016,1.755,1.436,1.755,1.436l0.094,0.791h-1.02v1.267h1.308h0.271v0.032v8.914h-1.58v1.379h1.308h7.573l0.023,0.016	h1.053l0.575-3.543h2.776v-1.411h-0.705c-0.22-0.064-0.289-0.275-0.204-0.424l1.896-2.776l1.973,2.98	c0.064,0.131-0.025,0.226-0.245,0.22h-0.61v0.172v1.239h5.251v-1.411H37.513z"/></svg>