<?xml version="1.0" standalone="no"?><!DOCTYPE svg PUBLIC "-//W3C//DTD SVG 1.1//EN" "http://www.w3.org/Graphics/SVG/1.1/DTD/svg11.dtd"><svg t="1736898695572" class="icon" viewBox="0 0 1024 1024" version="1.1" xmlns="http://www.w3.org/2000/svg" p-id="29854" xmlns:xlink="http://www.w3.org/1999/xlink" width="256" height="256"><path d="M870.4 1024h-716.8A51.2 51.2 0 0 1 102.4 972.8v-921.6A51.2 51.2 0 0 1 153.6 0h569.685333a42.666667 42.666667 0 0 1 30.037334 12.288l155.989333 155.989333a42.666667 42.666667 0 0 1 12.288 30.037334V972.8a51.2 51.2 0 0 1-51.2 51.2zM153.6 34.133333a17.066667 17.066667 0 0 0-17.066667 17.066667v921.6a17.066667 17.066667 0 0 0 17.066667 17.066667h716.8a17.066667 17.066667 0 0 0 17.066667-17.066667V198.314667a7.168 7.168 0 0 0-2.389334-5.802667l-155.989333-155.989333a7.168 7.168 0 0 0-5.802667-2.389334z" fill="#4D4D4D" p-id="29855"></path><path d="M904.533333 204.8h-170.666666a17.066667 17.066667 0 0 1-17.066667-17.066667v-170.666666h34.133333V170.666667h153.6z" fill="#4D4D4D" p-id="29856"></path><path d="M204.8 170.666667h443.733333v34.133333H204.8zM204.8 307.2h614.4v34.133333H204.8zM204.8 443.733333h614.4v34.133334H204.8zM204.8 580.266667h614.4v34.133333H204.8zM204.8 853.333333h614.4v34.133334H204.8zM204.8 716.8h614.4v34.133333H204.8z" fill="#B3B3B3" p-id="29857"></path><path d="M51.2 460.8m17.066667 0l887.466666 0q17.066667 0 17.066667 17.066667l0 273.066666q0 17.066667-17.066667 17.066667l-887.466666 0q-17.066667 0-17.066667-17.066667l0-273.066666q0-17.066667 17.066667-17.066667Z" fill="#C69C6D" p-id="29858"></path><path d="M955.733333 477.866667v273.066666H68.266667v-273.066666h887.466666m0-34.133334H68.266667a34.133333 34.133333 0 0 0-34.133334 34.133334v273.066666a34.133333 34.133333 0 0 0 34.133334 34.133334h887.466666a34.133333 34.133333 0 0 0 34.133334-34.133334v-273.066666a34.133333 34.133333 0 0 0-34.133334-34.133334z" fill="#8C6239" p-id="29859"></path><path d="M326.997333 698.709333v-144.725333H273.066667v-23.893333h131.754666v23.893333H352.938667v144.725333zM495.274667 614.4l-55.637334-83.626667h31.402667l40.96 62.805334h2.048l41.642667-63.488h29.354666L527.701333 614.4l55.978667 83.968h-30.378667L512 636.245333h-2.048l-41.984 62.464h-28.672zM671.061333 698.709333v-144.725333h-52.906666v-23.893333H750.933333v23.893333h-53.930666v144.725333z" fill="#FFFFFF" p-id="29860"></path></svg>