<?xml version="1.0" standalone="no"?><!DOCTYPE svg PUBLIC "-//W3C//DTD SVG 1.1//EN" "http://www.w3.org/Graphics/SVG/1.1/DTD/svg11.dtd"><svg t="1736896839001" class="icon" viewBox="0 0 1024 1024" version="1.1" xmlns="http://www.w3.org/2000/svg" p-id="54348" xmlns:xlink="http://www.w3.org/1999/xlink" width="256" height="256"><path d="M988.74783 23.733531a106.803451 106.803451 0 0 0-84.406083-22.397368L373.460126 81.902696c-60.536887 9.150925-107.955315 62.840616-107.955315 122.225639v514.627531a172.715706 172.715706 0 0 0-94.772864-28.156691C76.471022 690.599175 0.064 765.214407 0.064 857.299587 0.064 949.384767 76.471022 1024 170.731947 1024c94.196932 0 170.603954-74.615233 170.603954-166.700413V384.011199l606.776703-91.957195v331.673028a172.715706 172.715706 0 0 0-94.836856-28.156692c-94.196932 0-170.603954 74.679225-170.603954 166.764406 0 92.08518 76.407022 166.700413 170.603954 166.700412 94.260924 0 170.667947-74.615233 170.667946-166.700412V100.652493c0-30.204451-12.798496-58.233158-35.195864-76.918962zM170.795939 949.896707c-52.281857 0-94.836857-41.53112-94.836857-92.59712 0-51.129992 42.555-92.661112 94.836857-92.661112s94.772864 41.595113 94.772864 92.661112c0 51.066-42.491007 92.59712-94.772864 92.59712zM341.335901 309.012011v-104.947669c0-22.589346 20.477594-45.434661 43.770856-49.01824l530.881622-80.438548a29.052586 29.052586 0 0 1 23.421248 5.375368 25.852962 25.852962 0 0 1 8.702977 20.669571v116.466316L341.335901 308.948019z m511.939847 545.919855c-52.281857 0-94.772864-41.53112-94.772865-92.59712s42.491007-92.59712 94.772865-92.59712c52.281857 0 94.836857 41.53112 94.836856 92.59712s-42.555 92.59712-94.836856 92.59712z" fill="#000000" p-id="54349"></path></svg>