<?xml version="1.0" standalone="no"?><!DOCTYPE svg PUBLIC "-//W3C//DTD SVG 1.1//EN" "http://www.w3.org/Graphics/SVG/1.1/DTD/svg11.dtd"><svg t="1736896723360" class="icon" viewBox="0 0 1024 1024" version="1.1" xmlns="http://www.w3.org/2000/svg" p-id="53352" xmlns:xlink="http://www.w3.org/1999/xlink" width="256" height="256"><path d="M450.048 315.904L305.152 144.896H140.8l144.896 170.496h164.352z m427.008 0l-145.408-171.008h-164.352l144.896 170.496h164.864z m-213.504 0l-144.896-171.008H354.304l144.896 170.496h164.352z m274.944-171.008h-157.696l144.896 170.496h76.8V208.896a62.7712 62.7712 0 0 0-64-64z m-846.848 0h-6.144A62.7712 62.7712 0 0 0 21.504 208.896v106.496h215.552L91.648 144.896zM21.504 866.304a62.7712 62.7712 0 0 0 64 64h853.504a62.7712 62.7712 0 0 0 64-64V358.4H21.504z" fill="#222222" p-id="53353"></path><path d="M386.56 532.48c0-27.136 22.016-39.424 47.616-39.424a53.7088 53.7088 0 0 1 25.6 6.144l180.736 104.96a44.9536 44.9536 0 0 1 0 79.36l-180.736 104.448a47.5136 47.5136 0 0 1-25.6 6.144c-25.6 0-47.616-12.8-47.616-39.424z" fill="#00B65F" p-id="53354"></path></svg>