<?xml version="1.0" standalone="no"?><!DOCTYPE svg PUBLIC "-//W3C//DTD SVG 1.1//EN" "http://www.w3.org/Graphics/SVG/1.1/DTD/svg11.dtd"><svg t="1736898546078" class="icon" viewBox="0 0 1140 1024" version="1.1" xmlns="http://www.w3.org/2000/svg" p-id="21737" xmlns:xlink="http://www.w3.org/1999/xlink" width="285" height="256"><path d="M1089.726017 1023.998652h-1044.896583A44.492371 44.492371 0 0 1 0 979.506281V62.019668A62.019668 62.019668 0 0 1 62.019668 0h805.58156l273.021365 253.134624v719.630389a51.233639 51.233639 0 0 1-50.896576 51.233639z" fill="#E3713D" p-id="21738"></path><path d="M878.050193 273.358429l262.5724-20.223805L867.601228 0l-18.538488 244.370975a28.987454 28.987454 0 0 0 28.987453 28.987454z" fill="#C66038" p-id="21739"></path><path d="M896.588681 253.134624h244.033912L867.601228 0v224.14717a28.65039 28.65039 0 0 0 28.987453 28.987454z" fill="#FF7D4A" p-id="21740"></path><path d="M173.250595 860.185833m-81.569346 0a81.569346 81.569346 0 1 0 163.138692 0 81.569346 81.569346 0 1 0-163.138692 0Z" fill="#FFFFFF" p-id="21741"></path><path d="M362.680233 904.678203a33.706341 33.706341 0 0 1-33.706341-33.706341 166.509327 166.509327 0 0 0-166.172263-166.172263 33.706341 33.706341 0 0 1 0-67.412683 233.922009 233.922009 0 0 1 233.584946 233.584946 33.706341 33.706341 0 0 1-33.706342 33.706341z" fill="#FFFFFF" p-id="21742"></path><path d="M481.663619 893.892174a33.706341 33.706341 0 0 1-33.706342-33.706341 275.043746 275.043746 0 0 0-274.706682-274.369619 33.706341 33.706341 0 0 1 0-67.412683 342.456429 342.456429 0 0 1 342.119365 341.782302 33.706341 33.706341 0 0 1-33.706341 33.706341z" fill="#FFFFFF" p-id="21743"></path></svg>