<?xml version="1.0" standalone="no"?><!DOCTYPE svg PUBLIC "-//W3C//DTD SVG 1.1//EN" "http://www.w3.org/Graphics/SVG/1.1/DTD/svg11.dtd"><svg t="1737348268330" class="icon" viewBox="0 0 1024 1024" version="1.1" xmlns="http://www.w3.org/2000/svg" p-id="32085" xmlns:xlink="http://www.w3.org/1999/xlink" width="200" height="200"><path d="M896 288V896a128 128 0 0 1-128 128v-64a64 64 0 0 0 64-64V288h-128A96 96 0 0 1 608 192V64H256a64 64 0 0 0-64 64v576H128V128a128 128 0 0 1 128-128h352L896 288zM136.512 1014.336v-98.24l85.696-157.696h-54.784l-54.72 108.544h-2.048L56.064 758.4H0l85.696 158.656v97.28h50.816z m146.368 0v-170.24h2.432l60.928 138.176h33.024l60.544-138.24h2.432v170.304h45.76V758.4h-51.2l-72.96 166.144H362.24l-72.96-166.144h-51.52v255.936h45.184z m301.44-43.136h108.544v43.136H533.632V758.4h50.624v212.8z" fill="#000000" p-id="32086"></path></svg>