<?xml version="1.0" standalone="no"?><!DOCTYPE svg PUBLIC "-//W3C//DTD SVG 1.1//EN" "http://www.w3.org/Graphics/SVG/1.1/DTD/svg11.dtd"><svg t="1736899103841" class="icon" viewBox="0 0 1024 1024" version="1.1" xmlns="http://www.w3.org/2000/svg" p-id="64550" xmlns:xlink="http://www.w3.org/1999/xlink" width="256" height="256"><path d="M416.086802 128.00025l96.000187 0 0 64.000125-96.000187 0L416.086802 128.00025 416.086802 128.00025zM320.086614 192.000375l96.000187 0 0 64.000125-96.000187 0L320.086614 192.000375 320.086614 192.000375zM416.086802 255.9995l96.000187 0 0 64.000125-96.000187 0L416.086802 255.9995 416.086802 255.9995zM320.086614 319.999625l96.000187 0 0 64.000125-96.000187 0L320.086614 319.999625 320.086614 319.999625zM416.086802 383.99975l96.000187 0 0 64.000125-96.000187 0L416.086802 383.99975 416.086802 383.99975zM320.086614 447.999875l96.000187 0 0 64.000125-96.000187 0L320.086614 447.999875 320.086614 447.999875zM416.086802 512l0 64.000125-96.000187 0 0 223.999438c0 17.663827 14.336236 32.000062 32.000062 32.000062l128.00025 0c17.663827 0 32.000062-14.336236 32.000062-32.000062L512.086989 512 416.086802 512 416.086802 512zM480.086927 767.9995 352.086677 767.9995l0-64.000125 128.00025 0L480.086927 767.9995 480.086927 767.9995zM903.509826 199.423462 760.630407 56.576038C729.526234 25.472866 668.053798 0 624.054212 0L144.054275 0C100.054689 0 64.055118 35.99957 64.055118 80.000156l0 863.999688c0 43.999586 35.99957 80.000156 79.999156 80.000156l735.999438 0c43.999586 0 80.000156-35.99957 80.000156-80.000156L960.053868 335.999656c0-43.999586-25.470866-105.472022-56.575039-136.576195L903.509826 199.423462 903.509826 199.423462zM858.262393 244.671894c3.136614 3.134614 6.240232 6.975142 9.279858 11.327606L704.086364 255.9995 704.086364 92.543613c4.352464 3.039626 8.191992 6.144244 11.327606 9.279858l142.879419 142.848423L858.262393 244.671894 858.262393 244.671894zM896.086739 943.998844c0 8.671933-7.327098 16.000031-16.000031 16.000031l-735.999438 0c-8.672933 0-16.000031-7.328098-16.000031-16.000031L128.087239 80.000156c0-8.672933 7.327098-16.000031 16.000031-16.000031L624.086208 64.000125c4.832405 0 10.23974 0.607925 16.000031 1.695791l0 254.303709 254.303709 0c1.088866 5.760291 1.695791 11.167626 1.695791 16.000031L896.085739 943.998844 896.086739 943.998844z" fill="#6ec73e" p-id="64551"></path></svg>